<svg width="45" height="44" viewBox="-1 -2 47 48" fill="none" xmlns="http://www.w3.org/2000/svg">
<path d="M30.69 19.8732C30.4623 19.1163 29.7794 18.5108 29.0207 18.4351L25.8338 17.981L24.3922 14.9534C24.0128 14.1209 23.3299 13.6667 22.4952 13.6667C21.6606 13.6667 20.9777 14.1209 20.5983 14.8778L19.1566 17.9053L15.9698 18.4351C15.211 18.5865 14.5281 19.1163 14.3005 19.8732C13.997 20.7058 14.2246 21.5383 14.8316 22.1438L17.1838 24.4902L16.6527 27.8205C16.5009 28.653 16.8803 29.4856 17.5632 29.9397C17.9426 30.1668 18.322 30.3182 18.7772 30.3182C19.1566 30.3182 19.4601 30.2425 19.7636 30.0911L22.647 28.5017L25.5303 30.0911C26.2132 30.4695 27.0479 30.3939 27.7308 29.9397C28.4137 29.4856 28.793 28.653 28.6413 27.8205L28.1101 24.4902L30.4623 22.1438C30.7658 21.5383 30.9935 20.6301 30.69 19.8732Z" fill="#739EF1"/>
<path d="M22.5 42.5C11.1782 42.5 2 33.3218 2 22H-1C-1 34.9787 9.52131 45.5 22.5 45.5V42.5ZM43 22C43 33.3218 33.8218 42.5 22.5 42.5V45.5C35.4787 45.5 46 34.9787 46 22H43ZM22.5 1.5C33.8218 1.5 43 10.6782 43 22H46C46 9.02131 35.4787 -1.5 22.5 -1.5V1.5ZM22.5 -1.5C9.52131 -1.5 -1 9.02131 -1 22H2C2 10.6782 11.1782 1.5 22.5 1.5V-1.5Z" fill="#739EF1"/>
</svg>
