<svg width="40" height="40" viewBox="0 0 40 40" fill="none" xmlns="http://www.w3.org/2000/svg">
<path d="M20 16.6666C20.9166 16.6666 21.6666 15.9166 21.6666 14.9999C21.6666 14.0833 20.9166 13.3333 20 13.3333C19.0833 13.3333 18.3333 14.0833 18.3333 14.9999C18.3333 15.9166 19.0833 16.6666 20 16.6666ZM20 18.3333C19.0833 18.3333 18.3333 19.0833 18.3333 19.9999C18.3333 20.9166 19.0833 21.6666 20 21.6666C20.9166 21.6666 21.6666 20.9166 21.6666 19.9999C21.6666 19.0833 20.9166 18.3333 20 18.3333ZM20 23.3333C19.0833 23.3333 18.3333 24.0833 18.3333 24.9999C18.3333 25.9166 19.0833 26.6666 20 26.6666C20.9166 26.6666 21.6666 25.9166 21.6666 24.9999C21.6666 24.0833 20.9166 23.3333 20 23.3333Z" fill="#919399"/>
<rect x="0.75" y="0.75" width="38.5" height="38.5" rx="19.25" stroke="#ECEDF0" stroke-width="1.5"/>
</svg>
