<svg width="20" height="20" viewBox="0 0 20 20" fill="none" xmlns="http://www.w3.org/2000/svg">
<path d="M4.16665 7.49992C6.0076 7.49992 7.49998 6.00753 7.49998 4.16659C7.49998 2.32564 6.0076 0.833252 4.16665 0.833252C2.3257 0.833252 0.833313 2.32564 0.833313 4.16659C0.833313 6.00753 2.3257 7.49992 4.16665 7.49992Z" fill="white"/>
<path d="M15.8333 19.1667C17.6743 19.1667 19.1667 17.6743 19.1667 15.8333C19.1667 13.9924 17.6743 12.5 15.8333 12.5C13.9924 12.5 12.5 13.9924 12.5 15.8333C12.5 17.6743 13.9924 19.1667 15.8333 19.1667Z" fill="white"/>
<path d="M10.8333 14.9999H6.41666C5.83333 14.9999 5.66666 14.4999 5.58333 14.4166C5.58333 14.2499 5.5 13.7499 6 13.4999L15.6667 8.08325C16.6667 7.49992 17.1667 6.41659 16.8333 5.24992C16.5 4.08325 15.5833 3.33325 14.4167 3.33325H9.16666C8.66666 3.33325 8.33333 3.66659 8.33333 4.16659C8.33333 4.66659 8.66666 4.99992 9.16666 4.99992H14.4167C15 4.99992 15.1667 5.49992 15.25 5.58325C15.3333 5.66658 15.3333 6.24992 14.8333 6.49992L5.16666 11.9999C4.16666 12.5833 3.66666 13.6666 4 14.8333C4.25 15.9166 5.25 16.6666 6.41666 16.6666H10.8333C11.3333 16.6666 11.6667 16.3333 11.6667 15.8333C11.6667 15.3333 11.3333 14.9999 10.8333 14.9999Z" fill="white"/>
</svg>
