<svg width="20" height="20" viewBox="0 0 20 20" fill="none" xmlns="http://www.w3.org/2000/svg">
<path fill-rule="evenodd" clip-rule="evenodd" d="M2.97917 1.48754C4.0534 0.416726 5.85456 0.716171 6.61505 1.97964L6.62035 1.98843L8.37342 4.98428C8.88968 5.88485 8.75944 7.04258 7.98925 7.81032L7.69848 8.10016C8.72801 9.71494 10.292 11.3125 11.8728 12.2707L12.1618 12.0146C12.932 11.2637 14.0817 11.1402 14.9776 11.6506L14.9841 11.6543L17.9507 13.3793C18.6852 13.7309 19.0718 14.4103 19.1509 15.0886C19.23 15.7663 19.0131 16.5018 18.4856 17.0277L17.4859 18.0241C16.448 19.0587 14.7584 19.5166 13.3166 18.8633C11.4188 18.0877 8.57234 16.6242 5.97811 14.0383C3.37711 11.4455 1.91098 8.51957 1.14068 6.72969C0.483546 5.29681 0.936376 3.61677 1.96703 2.57956L2.9561 1.51148C2.96363 1.50335 2.97132 1.49537 2.97917 1.48754ZM4.16634 2.65307L3.18069 3.71746C3.17316 3.7256 3.16547 3.73358 3.15762 3.7414C2.53368 4.36336 2.32608 5.3268 2.6585 6.04477C2.66171 6.05169 2.66481 6.05865 2.66782 6.06565C3.39814 7.76431 4.76374 10.479 7.15621 12.8639C9.55295 15.253 12.1959 16.6119 13.9634 17.3327C13.9747 17.3373 13.986 17.3422 13.9971 17.3473C14.7174 17.6787 15.6839 17.4718 16.3078 16.8498L17.3075 15.8533C17.4464 15.7148 17.5211 15.4954 17.496 15.2804C17.4725 15.0791 17.3727 14.9412 17.2186 14.8714C17.1929 14.8597 17.1679 14.8468 17.1435 14.8327L14.1484 13.0911C13.886 12.9431 13.5494 12.9799 13.3207 13.2079C13.3092 13.2194 13.2973 13.2305 13.2851 13.2413L12.5354 13.9057C12.2772 14.1344 11.9041 14.1806 11.5976 14.0217C9.34999 12.8567 7.15689 10.5715 5.92363 8.37623C5.74139 8.05184 5.79768 7.64622 6.06142 7.38332L6.81115 6.63597C7.03986 6.40799 7.07677 6.07247 6.92831 5.81087L5.18424 2.83053C4.94684 2.44116 4.42734 2.40564 4.16634 2.65307Z" fill="#FFFFFF"/>
</svg>
