<svg width="20" height="20" viewBox="0 0 20 20" fill="none" xmlns="http://www.w3.org/2000/svg">
<path d="M15.8333 16.6666H4.16658C2.33325 16.6666 0.833252 15.1666 0.833252 13.3333V6.66658C0.833252 4.83325 2.33325 3.33325 4.16658 3.33325H15.8333C17.6666 3.33325 19.1666 4.83325 19.1666 6.66658V13.3333C19.1666 15.1666 17.6666 16.6666 15.8333 16.6666Z" fill="#283244"/>
<path d="M10 10.5C9.50003 10.5 8.9167 10.3334 8.50003 10.0834L4.33336 7.6667C3.9167 7.50003 3.75003 6.9167 4.00003 6.58336C4.1667 6.1667 4.75003 6.00003 5.08336 6.25003L9.25003 8.6667C9.6667 8.9167 10.25 8.9167 10.6667 8.6667L14.8334 6.25003C15.25 6.00003 15.75 6.1667 16 6.58336C16.25 7.00003 16.0834 7.50003 15.6667 7.75003L11.5 10.1667C11.0834 10.3334 10.5 10.5 10 10.5Z" fill="white"/>
</svg>
