<svg width="57" height="56" viewBox="-1 -2 59 61" fill="none" xmlns="http://www.w3.org/2000/svg">
<path d="M38.5 27.9805C38.5 33.4698 34.0088 37.9611 28.5195 37.9611C26.723 37.9611 25.0263 37.4621 23.5292 36.6636L19.6368 37.9611C18.9381 38.1607 18.3393 37.5619 18.5389 36.8632L19.8364 32.9708C19.0379 31.4737 18.5389 29.777 18.5389 27.9805C18.5389 22.4912 23.0302 18 28.5195 18C34.0088 18 38.5 22.4912 38.5 27.9805Z" fill="#FABF48"/>
<path d="M28.5 29.7C29.4389 29.7 30.2 28.9389 30.2 28C30.2 27.0612 29.4389 26.3 28.5 26.3C27.5612 26.3 26.8 27.0612 26.8 28C26.8 28.9389 27.5612 29.7 28.5 29.7Z" fill="white"/>
<path d="M23.5 29.7C24.4389 29.7 25.2 28.9389 25.2 28C25.2 27.0612 24.4389 26.3 23.5 26.3C22.5612 26.3 21.8 27.0612 21.8 28C21.8 28.9389 22.5612 29.7 23.5 29.7Z" fill="white"/>
<path d="M33.5 29.7C34.4389 29.7 35.2 28.9389 35.2 28C35.2 27.0612 34.4389 26.3 33.5 26.3C32.5612 26.3 31.8 27.0612 31.8 28C31.8 28.9389 32.5612 29.7 33.5 29.7Z" fill="white"/>
<path d="M28.5 54.5C13.8645 54.5 2 42.6355 2 28H-1C-1 44.2924 12.2076 57.5 28.5 57.5V54.5ZM55 28C55 42.6355 43.1355 54.5 28.5 54.5V57.5C44.7924 57.5 58 44.2924 58 28H55ZM28.5 1.5C43.1355 1.5 55 13.3645 55 28H58C58 11.7076 44.7924 -1.5 28.5 -1.5V1.5ZM28.5 -1.5C12.2076 -1.5 -1 11.7076 -1 28H2C2 13.3645 13.8645 1.5 28.5 1.5V-1.5Z" fill="#FABF48"/>
</svg>
