<svg width="25" height="24" viewBox="0 0 25 24" fill="none" xmlns="http://www.w3.org/2000/svg">
<path d="M16.6333 4C14.9333 4 13.4333 4.68786 12.3333 5.96532C11.2333 4.68786 9.73325 4 8.03325 4C4.93325 4 2.33325 6.55491 2.33325 9.60116C2.33325 9.79769 2.33325 9.99422 2.33325 10.1908C2.73325 14.8092 7.73325 18.6416 10.6333 20.5087C11.1333 20.8035 11.7333 21 12.3333 21C12.9333 21 13.5333 20.8035 14.0333 20.5087C16.9333 18.6416 21.9333 14.8092 22.3333 10.289C22.3333 10.0925 22.3333 9.89595 22.3333 9.69942C22.3333 6.55491 19.7333 4 16.6333 4ZM20.3333 9.99422C20.0333 13.9249 15.0333 17.4624 12.9333 18.7399C12.5333 18.9364 12.1333 18.9364 11.7333 18.7399C9.63325 17.3642 4.73325 13.8266 4.33325 9.89595C4.33325 9.89595 4.33325 9.69942 4.33325 9.60116C4.33325 7.63584 6.03325 5.96532 8.03325 5.96532C9.53325 5.96532 10.8333 6.84971 11.4333 8.12717C11.5333 8.52023 11.9333 8.71676 12.3333 8.71676C12.7333 8.71676 13.1333 8.52023 13.2333 8.12717C13.8333 6.84971 15.1333 5.96532 16.6333 5.96532C18.6333 5.96532 20.3333 7.63584 20.3333 9.60116C20.3333 9.69942 20.3333 9.89595 20.3333 9.99422Z" fill="#919399"/>
</svg>
