<svg width="20" height="20" viewBox="0 0 20 20" fill="none" xmlns="http://www.w3.org/2000/svg">
<path d="M18.3334 3.8335H1.66671C1.16671 3.8335 0.833374 4.16683 0.833374 4.66683C0.833374 5.16683 1.16671 5.50016 1.66671 5.50016H2.83337V15.2502C2.83337 17.4168 4.50004 19.1668 6.66671 19.1668H13.3334C15.5 19.1668 17.1667 17.4168 17.1667 15.3335V5.50016H18.3334C18.8334 5.50016 19.1667 5.16683 19.1667 4.66683C19.1667 4.16683 18.8334 3.8335 18.3334 3.8335Z" fill="white"/>
<path d="M7.00008 2.50016H13.0834C13.5834 2.50016 13.9167 2.16683 13.9167 1.66683C13.9167 1.16683 13.5834 0.833496 13.0834 0.833496H7.00008C6.50008 0.833496 6.16675 1.16683 6.16675 1.66683C6.16675 2.16683 6.50008 2.50016 7.00008 2.50016Z" fill="white"/>
<path d="M7.74996 15.4165C7.24996 15.4165 6.91663 15.0832 6.91663 14.5832V8.49984C6.91663 7.99984 7.24996 7.6665 7.74996 7.6665C8.24996 7.6665 8.58329 7.99984 8.58329 8.49984V14.5832C8.58329 14.9998 8.16663 15.4165 7.74996 15.4165Z" fill="#575FCC"/>
<path d="M12.25 15.4165C11.75 15.4165 11.4166 15.0832 11.4166 14.5832V8.49984C11.4166 7.99984 11.75 7.6665 12.25 7.6665C12.75 7.6665 13.0833 7.99984 13.0833 8.49984V14.5832C13.0833 14.9998 12.75 15.4165 12.25 15.4165Z" fill="#575FCC"/>
</svg>
