<svg width="57" height="56" viewBox="0 0 57 56" fill="none" xmlns="http://www.w3.org/2000/svg">
<rect x="1.25" y="0.75" width="54.5" height="54.5" rx="27.25" fill="#FF6D3B"/>
<path d="M22.175 32.675C21.7194 33.1307 21.7194 33.8694 22.175 34.325C22.6307 34.7807 23.3694 34.7807 23.825 34.325L28.5 29.6501L33.1749 34.325C33.6305 34.7807 34.3693 34.7807 34.8249 34.325C35.2805 33.8694 35.2805 33.1307 34.8249 32.675L30.1499 28.0001L34.8249 23.3251C35.2805 22.8695 35.2805 22.1308 34.8249 21.6751C34.3693 21.2195 33.6306 21.2195 33.1749 21.6751L28.5 26.3501L23.825 21.6751C23.3694 21.2195 22.6306 21.2195 22.175 21.6751C21.7194 22.1308 21.7194 22.8695 22.175 23.3251L26.85 28.0001L22.175 32.675Z" fill="white"/>
<rect x="1.25" y="0.75" width="54.5" height="54.5" rx="27.25" stroke="#FF6D3B" stroke-width="1.5"/>
</svg>
