<svg width="25" height="24" viewBox="0 0 25 24" fill="none" xmlns="http://www.w3.org/2000/svg">
<path fill-rule="evenodd" clip-rule="evenodd" d="M1.66675 5.78146C1.66675 3.646 3.29246 2 5.42991 2H14.9036C17.0641 2 18.6667 3.76883 18.6667 5.78146V11.7417C18.6667 13.9004 16.919 15.5232 14.9036 15.5232H8.68648C8.0384 15.5232 7.45056 15.7363 6.90575 16.127L3.25876 18.8059C2.95494 19.0291 2.55143 19.0625 2.21509 18.8922C1.87875 18.7219 1.66675 18.377 1.66675 18V5.78146ZM3.66675 16.0246L5.73425 14.5059C6.56993 13.9051 7.5598 13.5232 8.68648 13.5232H14.9036C15.8487 13.5232 16.6667 12.7619 16.6667 11.7417V5.78146C16.6667 4.81395 15.901 4 14.9036 4H5.42991C4.40946 4 3.66675 4.7381 3.66675 5.78146V16.0246Z" fill="#919399"/>
<path fill-rule="evenodd" clip-rule="evenodd" d="M20.1973 8.62088C20.4066 8.10983 20.9907 7.86526 21.5017 8.07463C22.7618 8.59086 23.6667 9.78414 23.6667 11.1825V22C23.6667 22.3668 23.4659 22.7041 23.1435 22.879C22.8211 23.0539 22.4288 23.0382 22.1213 22.8382L18.6213 20.5608C18.5995 20.5466 18.5782 20.5315 18.5576 20.5156C18.1736 20.2207 17.5934 20.0584 16.902 20.0584H11.0344C9.6477 20.0584 8.35577 19.2926 7.76597 18.0693C7.52611 17.5719 7.73495 16.9741 8.23243 16.7343C8.72991 16.4944 9.32764 16.7032 9.5675 17.2007C9.80122 17.6855 10.3622 18.0584 11.0344 18.0584H16.902C17.8452 18.0584 18.8966 18.27 19.7423 18.904L21.6667 20.1563V11.1825C21.6667 10.683 21.3364 10.1682 20.7435 9.92534C20.2325 9.71597 19.9879 9.13194 20.1973 8.62088Z" fill="#919399"/>
</svg>
