<svg width="375" height="552" viewBox="0 0 375 552" fill="none" xmlns="http://www.w3.org/2000/svg">
<path d="M328.661 665.29C329.956 662.825 331.846 658.767 332.877 656.24C333.908 653.713 335.379 649.556 336.149 646.982C336.919 644.408 337.979 640.187 338.494 637.587C339.008 634.986 339.661 630.727 339.935 628.115C340.209 625.503 340.444 621.233 340.476 618.621C340.509 616.009 340.369 611.785 340.135 609.175C339.9 606.566 339.399 602.406 338.934 599.838C338.469 597.27 337.554 593.163 336.881 590.667C336.209 588.172 334.904 584.154 333.997 581.728C333.09 579.301 331.428 575.421 330.306 573.069C329.184 570.716 327.153 567.003 325.802 564.77C324.451 562.537 322.08 559.002 320.516 556.891C318.952 554.78 316.24 551.463 314.461 549.486C312.683 547.509 309.633 544.437 307.653 542.624C305.672 540.811 302.902 538.434 301.469 537.314C300.035 536.195 296.974 534.083 294.676 532.55C292.548 531.158 289.159 529.154 286.718 527.832C284.481 526.406 281.209 524.495 279.071 523.38C278.169 522.909 277.063 522.365 275.871 521.806C274.894 521.102 273.854 520.385 272.939 519.777C270.933 518.438 267.551 516.452 265.401 515.347C263.408 514.318 260.199 512.88 257.977 511.999C257.685 511.734 257.419 511.495 257.204 511.309C256.157 510.423 253.908 508.747 252.188 507.583C248.039 504.769 243.544 502.503 238.815 500.84C237.407 500.349 235.337 499.74 233.535 499.277C233.447 499.166 233.357 499.048 233.268 498.949C232.201 497.66 231.066 496.428 229.869 495.258C228.617 494.156 227.307 493.122 225.944 492.161C224.291 491.031 222.563 490.015 220.771 489.122C218.959 488.278 217.091 487.557 215.181 486.964C213.243 486.42 211.272 485.999 209.281 485.703C207.238 485.454 205.182 485.323 203.124 485.312L202.862 485.317C202.666 484.719 202.465 484.158 202.287 483.718C201.697 482.278 201.002 480.883 200.208 479.546C199.557 478.5 198.835 477.5 198.048 476.554C197.221 475.696 196.329 474.904 195.381 474.184C194.235 473.346 193.009 472.625 191.719 472.032C190.395 471.483 189.022 471.059 187.619 470.767C186.149 470.524 184.661 470.4 183.171 470.396C181.583 470.447 180 470.605 178.433 470.868C176.744 471.199 175.076 471.628 173.437 472.151C172.025 472.608 169.683 473.526 168.218 474.193C166.754 474.861 164.325 476.106 162.815 476.971L162.177 477.346C162.394 476.494 162.598 475.676 162.741 475.052C163.085 473.573 163.539 471.297 163.756 469.985C163.973 468.673 164.221 466.647 164.302 465.497C164.392 464.207 164.413 462.913 164.364 461.621C164.296 460.536 164.141 459.459 163.9 458.399C163.708 457.632 163.445 456.885 163.114 456.167C162.76 455.563 162.326 455.01 161.823 454.524C161.213 453.982 160.504 453.565 159.734 453.296C158.906 453.076 158.048 452.993 157.193 453.048C156.224 453.161 155.269 453.378 154.345 453.693C153.265 454.1 152.213 454.58 151.197 455.129C150.306 455.644 148.726 456.627 147.738 457.315C146.751 458.003 145.06 459.317 143.992 460.211C142.924 461.106 141.118 462.706 139.965 463.786C138.811 464.866 136.908 466.751 135.713 468.013C134.518 469.276 132.487 471.428 131.224 472.845C129.961 474.262 127.857 476.69 126.548 478.256C125.238 479.823 123.065 482.488 121.704 484.213C120.343 485.938 118.128 488.825 116.728 490.676C115.329 492.526 113.062 495.66 111.657 497.631C110.251 499.602 107.949 502.939 106.517 505.024C105.086 507.109 102.773 510.624 101.337 512.836C99.9017 515.049 97.9813 518.056 97.0098 519.609C96.0382 521.162 94.1114 524.331 92.6987 526.675C91.2859 529.019 88.9993 532.92 87.6219 535.314C86.2444 537.708 84.0864 541.561 82.7855 543.936C81.4846 546.31 79.4713 550.077 78.2632 552.394C77.055 554.71 75.1807 558.411 74.0738 560.646C72.9669 562.881 71.2415 566.469 70.2318 568.648C69.222 570.828 67.6636 574.272 66.7489 576.36C65.8343 578.448 64.4505 581.735 63.6423 583.733C62.8341 585.73 61.6188 588.85 60.9212 590.73C60.2235 592.609 59.194 595.544 58.6069 597.305C58.0198 599.066 57.1743 601.809 56.7114 603.419C56.2485 605.029 55.5929 607.558 55.2431 609.046C54.8933 610.533 54.4455 612.789 54.2277 614.113C54.0098 615.436 53.7655 617.446 53.6822 618.601C53.5909 619.89 53.5703 621.184 53.6204 622.476C53.6904 623.561 53.8453 624.638 54.0838 625.698C54.2758 626.465 54.539 627.212 54.8699 627.93C55.2226 628.535 55.657 629.088 56.1608 629.574C56.7717 630.114 57.481 630.53 58.2499 630.801C59.0778 631.021 59.9359 631.105 60.7909 631.05C61.7605 630.938 62.7154 630.722 63.6388 630.404C64.7191 629.997 65.7708 629.517 66.7867 628.968C67.6783 628.453 69.2578 627.47 70.2455 626.782C71.2331 626.094 72.9196 624.778 73.9918 623.886C75.064 622.994 76.8727 621.39 78.0147 620.309C78.1289 620.205 78.2577 620.086 78.3822 619.964C78.3589 621.007 78.3536 622.018 78.3671 622.787C78.3992 624.488 78.5691 627.136 78.7524 628.689C78.9811 630.499 79.3017 632.297 79.7128 634.074C80.1176 635.698 80.6209 637.296 81.2198 638.859C81.8074 640.3 82.5025 641.695 83.2993 643.031C83.9492 644.077 84.6709 645.077 85.4594 646.023C86.2854 646.879 87.1755 647.67 88.1222 648.39C89.2675 649.229 90.4941 649.949 91.7837 650.542C93.1074 651.092 94.4802 651.515 95.8838 651.807C97.3537 652.052 98.8414 652.177 100.332 652.179C101.921 652.128 103.506 651.971 105.074 651.709L105.162 651.689C105.564 652.439 105.967 653.148 106.305 653.706C107.388 655.437 108.575 657.1 109.86 658.686C110.927 659.975 112.062 661.207 113.259 662.377C114.508 663.47 115.815 664.496 117.174 665.45C117.855 665.927 118.774 666.508 119.711 667.059C120.648 667.61 121.599 668.127 122.347 668.49C124.161 669.334 126.03 670.056 127.941 670.65C129.075 670.986 130.753 671.37 132.227 671.64L132.619 672.066C134.03 673.544 136.035 675.477 137.083 676.37C138.132 677.264 140.384 678.935 142.1 680.097C142.942 680.669 144.12 681.402 145.293 682.092C146.467 682.782 147.663 683.443 148.59 683.911C150.303 684.776 153.07 685.954 155.005 686.672C155.354 686.971 155.671 687.234 155.934 687.448C157.166 688.449 159.808 690.35 161.813 691.681C162.815 692.352 164.166 693.182 165.532 693.985C166.899 694.788 168.277 695.562 169.351 696.11C170.16 696.527 171.175 697.017 172.241 697.508C173.317 698.264 174.458 699.041 175.456 699.698C176.559 700.429 178.032 701.33 179.535 702.213C180.77 702.939 182 703.662 183.072 704.215C184.131 704.89 185.404 705.661 186.696 706.421C188.259 707.339 189.838 708.232 191.066 708.871C193.511 710.154 197.549 712.026 200.064 713.049C202.58 714.073 206.711 715.516 209.269 716.275C211.828 717.035 216.024 718.067 218.624 718.575C221.225 719.082 225.451 719.702 228.045 719.981C230.638 720.26 234.891 720.463 237.498 720.468C240.106 720.472 244.331 720.3 246.919 720.068C249.506 719.836 253.69 719.274 256.234 718.805C258.779 718.335 262.881 717.4 265.387 716.696C267.893 715.991 271.88 714.67 274.314 713.747C276.748 712.823 280.617 711.132 282.958 709.976C285.299 708.821 289.018 706.782 291.255 705.412C293.492 704.042 297.014 701.628 299.122 700.046C301.23 698.465 304.563 695.721 306.534 693.93C308.506 692.138 311.598 689.053 313.417 687.06C315.237 685.067 317.626 682.264 318.745 680.821C319.864 679.378 321.994 676.294 323.537 673.979C325.08 671.664 327.367 667.752 328.661 665.29ZM81.1935 615.05C79.9927 616.291 78.1 618.158 76.9752 619.22C75.8505 620.282 74.0712 621.856 73.0206 622.731C71.97 623.607 70.3328 624.869 69.366 625.551C68.3992 626.234 66.923 627.172 66.0546 627.647C65.1102 628.153 64.1334 628.596 63.1306 628.973C62.3286 629.243 61.5016 629.431 60.662 629.534C60.0036 629.574 59.3431 629.51 58.7046 629.346C58.1547 629.152 57.6476 628.854 57.2111 628.468C56.8263 628.1 56.4911 627.682 56.2139 627.227C55.9452 626.609 55.7298 625.97 55.57 625.315C55.3602 624.344 55.2241 623.359 55.163 622.368C55.1202 621.139 55.1411 619.908 55.2255 618.682C55.303 617.547 55.5418 615.617 55.7547 614.332C55.9677 613.047 56.4122 610.806 56.7501 609.359C57.0881 607.911 57.7335 605.429 58.1913 603.828C58.6491 602.227 59.4878 599.516 60.069 597.775C60.6503 596.034 61.6797 593.099 62.3663 591.248C63.0529 589.398 64.2688 586.266 65.0686 584.293C65.8683 582.321 67.2598 579.02 68.159 576.959C69.0582 574.897 70.62 571.437 71.6256 569.284C72.6312 567.132 74.3548 563.537 75.4566 561.311C76.5583 559.085 78.43 555.389 79.6279 553.089C80.8257 550.79 82.8544 546.997 84.1347 544.658C85.415 542.319 87.5981 538.433 88.9557 536.063C90.3133 533.692 92.6009 529.809 94.017 527.449C95.4331 525.09 97.3532 521.952 98.3152 520.406C99.2772 518.859 101.217 515.828 102.63 513.655C104.042 511.482 106.374 507.955 107.792 505.873C109.209 503.792 111.501 500.483 112.912 498.504C114.322 496.525 116.574 493.435 117.958 491.581C119.342 489.727 121.561 486.843 122.916 485.149C124.27 483.455 126.428 480.776 127.726 479.22C129.023 477.664 131.114 475.258 132.372 473.85C133.63 472.441 135.629 470.312 136.817 469.063C138.004 467.814 139.91 465.955 141.035 464.893C142.16 463.831 143.939 462.257 144.99 461.382C146.04 460.506 147.673 459.242 148.64 458.559C149.607 457.876 151.087 456.941 151.956 456.466C152.898 455.955 153.874 455.507 154.876 455.126C155.677 454.853 156.504 454.665 157.345 454.565C158.003 454.525 158.663 454.588 159.302 454.753C159.852 454.946 160.359 455.244 160.796 455.631C161.18 455.998 161.514 456.414 161.788 456.869C162.06 457.486 162.276 458.126 162.432 458.781C162.648 459.752 162.785 460.738 162.844 461.731C162.889 462.96 162.868 464.191 162.781 465.417C162.704 466.552 162.46 468.48 162.252 469.767C162.043 471.055 161.593 473.285 161.256 474.74C160.92 476.194 160.271 478.674 159.815 480.271C159.36 481.868 158.514 484.592 157.938 486.324C157.362 488.056 156.327 491 155.64 492.85C154.954 494.701 153.738 497.833 152.938 499.806C152.138 501.778 150.747 505.079 149.848 507.14C148.948 509.202 147.393 512.642 146.381 514.814C145.369 516.987 143.665 520.54 142.55 522.788C141.435 525.035 139.577 528.71 138.379 531.009C137.181 533.309 135.165 537.08 133.872 539.441C132.579 541.802 130.409 545.666 129.051 548.036C127.693 550.407 125.406 554.29 123.99 556.649C122.574 559.009 120.638 562.173 119.691 563.693C118.745 565.214 116.812 568.232 115.377 570.444C113.941 572.657 111.623 576.15 110.215 578.226C108.807 580.301 106.485 583.651 105.107 585.614C103.73 587.577 101.435 590.701 100.057 592.534C98.679 594.368 96.4683 597.258 95.0989 598.966C93.7295 600.675 91.6012 603.324 90.2891 604.895C88.9769 606.467 86.9005 608.857 85.6427 610.266C84.3849 611.674 82.3874 613.81 81.1935 615.05ZM104.793 650.192C103.309 650.446 101.809 650.596 100.305 650.64C98.9161 650.637 97.53 650.521 96.1602 650.294C94.8689 650.025 93.6052 649.638 92.3852 649.137C91.209 648.588 90.0872 647.928 89.0347 647.168C88.1644 646.505 87.3453 645.777 86.5844 644.991C85.8538 644.112 85.185 643.182 84.583 642.21C83.8321 640.955 83.1731 639.647 82.6112 638.296C82.0389 636.803 81.559 635.276 81.174 633.723C80.8573 632.357 80.4435 630.043 80.2667 628.529C80.0898 627.015 79.9222 624.433 79.8896 622.773C79.8712 621.642 79.8961 619.975 79.952 618.456C80.7799 617.639 81.6354 616.784 82.285 616.11C83.4954 614.862 85.5066 612.693 86.7739 611.278C88.0412 609.864 90.1409 607.434 91.4505 605.867C92.76 604.3 94.9429 601.618 96.294 599.911C97.6451 598.203 99.8808 595.281 101.27 593.448C102.659 591.615 104.917 588.475 106.344 586.518C107.771 584.56 110.042 581.227 111.484 579.125C112.926 577.022 115.223 573.534 116.664 571.313C118.104 569.091 120.04 566.058 120.991 564.54C121.942 563.022 123.874 559.844 125.302 557.474C126.73 555.104 129.002 551.229 130.379 548.834C131.757 546.44 133.927 542.565 135.215 540.213C136.503 537.861 138.538 534.047 139.733 531.752C140.929 529.458 142.807 525.759 143.923 523.5C145.038 521.241 146.765 517.66 147.769 515.5C148.773 513.341 150.348 509.859 151.252 507.789C152.156 505.718 153.55 502.413 154.359 500.416C155.167 498.419 156.382 495.298 157.08 493.419C157.777 491.54 158.807 488.605 159.394 486.844C159.981 485.082 160.811 482.366 161.29 480.73C161.389 480.37 161.503 479.965 161.622 479.533C162.34 479.093 163.024 478.681 163.576 478.363C165.055 477.521 167.42 476.303 168.852 475.652C170.284 475 172.549 474.113 173.914 473.664C175.489 473.168 177.09 472.76 178.71 472.441C180.194 472.188 181.694 472.038 183.199 471.993C184.587 471.995 185.974 472.111 187.343 472.34C188.635 472.608 189.898 472.995 191.118 473.496C192.294 474.046 193.416 474.705 194.469 475.465C195.339 476.128 196.158 476.856 196.919 477.642C197.648 478.523 198.317 479.452 198.92 480.423C199.671 481.677 200.329 482.984 200.888 484.335C201.458 485.829 201.938 487.356 202.325 488.908C202.637 490.271 203.055 492.588 203.232 494.102C203.409 495.616 203.572 498.196 203.605 499.855C203.637 501.514 203.566 504.334 203.455 506.127C203.344 507.92 203.032 510.947 202.772 512.864C202.511 514.782 201.975 517.989 201.575 520.014C201.175 522.039 200.403 525.408 199.86 527.525C199.317 529.643 198.316 533.161 197.62 535.348C196.924 537.535 195.724 541.172 194.901 543.444C194.079 545.716 192.641 549.426 191.685 551.755C190.729 554.084 189.066 557.886 187.986 560.236C186.905 562.587 185.021 566.465 183.806 568.843C182.592 571.221 180.504 575.115 179.155 577.52C177.807 579.925 175.537 583.778 174.099 586.124C172.661 588.471 170.673 591.604 169.695 593.088C168.717 594.572 166.664 597.544 165.144 599.689C163.624 601.834 161.128 605.2 159.552 607.2C157.976 609.2 155.453 612.361 153.88 614.226C152.306 616.092 149.731 619.01 148.145 620.727C146.558 622.444 143.974 625.108 142.384 626.67C140.795 628.231 138.219 630.629 136.639 632.025C135.058 633.421 132.505 635.55 130.953 636.767C129.401 637.985 126.887 639.817 125.362 640.857C123.838 641.896 121.383 643.427 119.899 644.278C118.415 645.129 116.053 646.342 114.624 646.989C113.194 647.636 110.931 648.53 109.561 648.976C107.995 649.469 106.403 649.875 104.793 650.192ZM128.384 669.205C126.55 668.627 124.756 667.928 123.015 667.112C121.297 666.256 119.64 665.283 118.057 664.199C116.749 663.279 115.492 662.288 114.292 661.231C113.14 660.108 112.05 658.924 111.026 657.684C109.788 656.155 108.644 654.551 107.602 652.881C107.334 652.446 107.005 651.893 106.713 651.326C107.864 651.053 109.14 650.705 110.068 650.401C111.475 649.941 113.822 649.026 115.282 648.356C116.742 647.685 119.173 646.447 120.69 645.58C122.207 644.713 124.691 643.153 126.266 642.107C127.84 641.062 130.337 639.19 131.94 637.955C133.544 636.72 136.098 634.569 137.705 633.159C139.311 631.749 141.902 629.325 143.524 627.729C145.145 626.133 147.672 623.476 149.265 621.769C150.857 620.061 153.458 617.1 155.046 615.219C156.635 613.338 159.195 610.164 160.761 608.14C162.328 606.117 164.842 602.721 166.384 600.577C167.927 598.433 169.984 595.453 170.965 593.935C171.945 592.417 173.944 589.296 175.399 586.93C176.855 584.564 179.128 580.684 180.486 578.273C181.845 575.861 183.944 571.938 185.164 569.54C186.385 567.142 188.267 563.257 189.374 560.881C190.482 558.505 192.135 554.68 193.096 552.342C194.057 550.004 195.506 546.236 196.337 543.969C197.168 541.702 198.392 538.014 199.079 535.804C199.765 533.594 200.772 530.044 201.32 527.899C201.867 525.755 202.648 522.35 203.054 520.305C203.46 518.26 204.003 515.01 204.268 513.065C204.533 511.12 204.854 508.058 204.961 506.221C205.068 504.384 205.147 501.522 205.119 499.825C205.092 498.127 204.913 495.473 204.734 493.923C204.555 492.372 204.124 489.947 203.774 488.538C203.659 488.052 203.498 487.473 203.32 486.873C205.237 486.894 207.152 487.02 209.055 487.252C210.969 487.535 212.863 487.938 214.726 488.46C216.564 489.031 218.362 489.723 220.108 490.531C221.826 491.387 223.482 492.361 225.066 493.445C226.374 494.365 227.631 495.356 228.831 496.413C229.984 497.531 231.078 498.709 232.107 499.942C233.343 501.471 234.485 503.074 235.526 504.742C236.566 506.493 237.509 508.3 238.35 510.154C239.039 511.739 240.044 514.412 240.575 516.134C241.107 517.856 241.828 520.77 242.193 522.625C242.559 524.48 243.008 527.605 243.204 529.579C243.4 531.552 243.581 534.863 243.592 536.94C243.603 539.017 243.528 542.484 243.391 544.662C243.253 546.841 242.88 550.445 242.567 552.692C242.254 554.939 241.629 558.631 241.139 560.968C240.649 563.306 239.74 567.09 239.1 569.452C238.46 571.813 237.258 575.685 236.441 578.078C235.624 580.471 234.146 584.4 233.177 586.78C232.209 589.161 230.448 593.129 229.295 595.543C228.141 597.957 226.119 601.89 224.8 604.295C223.481 606.7 221.209 610.557 219.749 612.891C218.289 615.225 216.27 618.31 215.245 619.784C214.219 621.258 212.088 624.153 210.479 626.24C208.869 628.327 206.206 631.606 204.537 633.534C202.868 635.462 200.095 638.475 198.36 640.246C196.624 642.017 193.778 644.764 191.999 646.367C190.22 647.971 187.308 650.431 185.498 651.857C183.687 653.283 180.735 655.459 178.903 656.702C177.071 657.944 174.121 659.827 172.264 660.871C170.407 661.916 167.452 663.484 165.622 664.343C163.791 665.202 160.852 666.443 159.029 667.089C157.206 667.735 154.304 668.643 152.544 669.101C150.784 669.56 147.916 670.099 146.183 670.331C144.14 670.586 142.085 670.735 140.027 670.779C138.039 670.766 136.054 670.639 134.081 670.4C132.152 670.12 130.244 669.717 128.366 669.195L128.384 669.205ZM155.977 685.42C151.369 683.804 146.991 681.599 142.952 678.857C141.267 677.714 139.082 676.088 138.068 675.226C137.282 674.558 135.909 673.255 134.692 672.027C136.351 672.212 138.528 672.328 139.993 672.322C142.122 672.282 144.248 672.131 146.362 671.87C148.139 671.634 151.058 671.089 152.89 670.608C154.722 670.127 157.694 669.231 159.541 668.564C161.389 667.897 164.404 666.636 166.265 665.765C168.126 664.894 171.147 663.324 173.018 662.235C174.889 661.146 177.911 659.252 179.766 657.981C181.62 656.711 184.612 654.516 186.452 653.06C188.291 651.605 191.235 649.122 193.036 647.49C194.838 645.858 197.717 643.095 199.463 641.307C201.209 639.519 204.013 636.471 205.702 634.519C207.391 632.568 210.08 629.274 211.705 627.161C213.33 625.048 215.479 622.134 216.512 620.646C217.545 619.159 219.587 616.034 221.055 613.687C222.522 611.34 224.812 607.453 226.147 605.021C227.481 602.59 229.516 598.635 230.688 596.191C231.859 593.746 233.607 589.788 234.605 587.348C235.603 584.908 237.084 580.964 237.91 578.546C238.735 576.128 239.939 572.216 240.594 569.828C241.248 567.44 242.176 563.595 242.679 561.265C243.182 558.935 243.813 555.165 244.128 552.884C244.443 550.603 244.813 546.955 244.957 544.745C245.101 542.535 245.197 539.022 245.168 536.904C245.14 534.787 244.955 531.422 244.76 529.408C244.565 527.393 244.097 524.209 243.727 522.311C243.358 520.412 242.607 517.429 242.065 515.664C241.523 513.9 240.497 511.132 239.785 509.516C238.916 507.602 237.943 505.736 236.871 503.928C236.406 503.165 235.75 502.195 235.081 501.259C236.276 501.601 237.454 501.963 238.353 502.279C242.961 503.895 247.341 506.102 251.382 508.844C253.067 509.987 255.252 511.613 256.266 512.475C257.28 513.336 259.231 515.22 260.612 516.669C262.263 518.439 263.824 520.291 265.288 522.219C266.491 523.841 268.292 526.592 269.306 528.356C270.32 530.12 271.82 533.102 272.669 535.017C273.518 536.931 274.71 540.116 275.359 542.149C276.009 544.183 276.897 547.555 277.396 549.712C277.896 551.87 278.457 555.398 278.729 557.622C279.001 559.847 279.289 563.539 279.373 565.842C279.457 568.145 279.432 571.948 279.318 574.317C279.204 576.687 278.884 580.552 278.567 582.985C278.251 585.419 277.602 589.351 277.096 591.797C276.589 594.242 275.618 598.232 274.915 600.692C274.211 603.152 272.891 607.144 272.028 609.616C271.164 612.088 269.496 616.069 268.396 618.514C267.295 620.959 265.335 624.916 264.026 627.333C262.718 629.75 260.458 633.597 258.986 635.911C257.513 638.226 255.447 641.301 254.383 642.741C253.319 644.181 251.108 647.041 249.434 649.078C247.76 651.115 244.95 654.302 243.169 656.17C241.388 658.038 238.432 660.932 236.568 662.621C234.703 664.31 231.608 666.91 229.669 668.414C227.731 669.918 224.524 672.217 222.537 673.533C220.55 674.849 217.258 676.821 215.229 677.947C213.2 679.074 209.842 680.717 207.762 681.631C205.682 682.544 202.323 683.868 200.213 684.57C198.104 685.271 194.733 686.246 192.637 686.743C190.542 687.241 187.159 687.855 185.083 688.128C183.008 688.401 179.644 688.66 177.596 688.707C175.547 688.754 172.24 688.646 170.228 688.461C168.216 688.275 164.988 687.782 163.035 687.366C160.649 686.838 158.294 686.185 155.977 685.408L155.977 685.42ZM170.041 694.775C167.937 693.693 164.622 691.744 162.652 690.434C161.565 689.706 160.291 688.816 159.162 688C160.412 688.35 161.663 688.667 162.639 688.862C164.643 689.291 167.974 689.809 170.015 689.987C172.055 690.165 175.454 690.286 177.533 690.228C179.612 690.169 183.052 689.931 185.183 689.632C187.315 689.333 190.762 688.721 192.89 688.219C195.017 687.717 198.484 686.721 200.607 686.005C202.731 685.288 206.168 683.962 208.263 683.004C210.357 682.047 213.766 680.397 215.841 679.263C217.916 678.128 221.229 676.11 223.276 674.782C225.323 673.454 228.545 671.129 230.513 669.595C232.481 668.061 235.615 665.436 237.499 663.723C239.383 662.01 242.39 659.081 244.188 657.193C245.986 655.306 248.828 652.085 250.525 650.02C252.221 647.955 254.463 645.083 255.529 643.609C256.595 642.135 258.677 639.034 260.178 636.7C261.679 634.367 263.954 630.465 265.275 628.026C266.596 625.587 268.571 621.585 269.69 619.109C270.809 616.634 272.451 612.596 273.366 610.107C274.28 607.618 275.593 603.569 276.312 601.082C277.03 598.596 278.01 594.552 278.516 592.077C279.022 589.601 279.692 585.593 280.002 583.15C280.313 580.707 280.657 576.762 280.771 574.363C280.884 571.963 280.913 568.104 280.822 565.761C280.732 563.419 280.445 559.675 280.167 557.411C279.889 555.148 279.283 551.535 278.812 549.359C278.341 547.182 277.409 543.725 276.759 541.662C276.11 539.599 274.868 536.327 274.012 534.384C273.157 532.442 271.643 529.393 270.582 527.578C269.522 525.763 267.701 522.935 266.462 521.293C264.96 519.315 263.36 517.413 261.667 515.596L261.029 514.937C262.377 515.541 263.703 516.172 264.713 516.689C266.817 517.772 270.132 519.72 272.102 521.031C274.071 522.342 276.664 524.207 277.87 525.182C279.077 526.157 281.411 528.271 283.073 529.885C284.735 531.499 287.273 534.259 288.742 536.031C290.211 537.802 292.418 540.804 293.708 542.73C294.998 544.657 296.894 547.877 297.962 549.95C299.03 552.023 300.636 555.427 301.504 557.589C302.372 559.751 303.641 563.347 304.314 565.612C304.986 567.878 305.932 571.643 306.387 573.976C306.843 576.308 307.451 580.188 307.706 582.591C307.961 584.995 308.212 588.96 308.258 591.417C308.304 593.875 308.202 597.91 308.033 600.394C307.863 602.879 307.413 606.963 307.024 609.471C306.634 611.98 305.829 616.067 305.211 618.572C304.594 621.076 303.431 625.16 302.6 627.657C301.769 630.155 300.227 634.192 299.166 636.66C298.105 639.128 296.198 643.105 294.905 645.526C293.613 647.946 291.357 651.795 289.865 654.104C288.372 656.413 286.287 659.459 285.215 660.894C284.142 662.328 281.855 665.127 280.115 667.136C278.374 669.146 275.458 672.253 273.601 674.07C271.744 675.887 268.626 678.686 266.656 680.314C264.686 681.941 261.403 684.419 259.331 685.85C257.258 687.282 253.836 689.436 251.691 690.659C249.546 691.883 245.994 693.707 243.785 694.728C241.577 695.749 237.937 697.22 235.673 698.026C233.408 698.831 229.703 699.963 227.41 700.545C225.118 701.127 221.368 701.903 219.052 702.265C216.736 702.627 212.975 703.031 210.656 703.167C208.337 703.303 204.582 703.326 202.277 703.228C199.972 703.13 196.244 702.775 193.967 702.439C191.689 702.104 188.019 701.351 185.79 700.773C183.56 700.195 179.965 699.044 177.79 698.214C175.614 697.384 172.15 695.849 170.049 694.751L170.041 694.775ZM184.415 703.222C183.063 702.516 181.295 701.513 179.601 700.505C181.569 701.166 183.834 701.866 185.418 702.278C187.699 702.868 191.439 703.633 193.759 703.976C196.08 704.318 199.879 704.681 202.23 704.782C204.581 704.883 208.397 704.866 210.762 704.721C213.127 704.577 216.971 704.181 219.305 703.8C221.638 703.419 225.474 702.647 227.804 702.051C230.134 701.455 233.894 700.32 236.201 699.493C238.508 698.665 242.195 697.174 244.441 696.139C246.687 695.105 250.264 693.248 252.467 692.006C254.67 690.764 258.127 688.571 260.221 687.123C262.315 685.675 265.654 683.152 267.645 681.508C269.636 679.864 272.805 677.018 274.687 675.18C276.568 673.342 279.535 670.188 281.296 668.155C283.056 666.121 285.366 663.284 286.458 661.825C287.551 660.367 289.663 657.284 291.171 654.948C292.679 652.613 294.968 648.719 296.274 646.265C297.58 643.811 299.5 639.771 300.593 637.281C301.685 634.79 303.222 630.69 304.07 628.155C304.917 625.62 306.101 621.49 306.719 618.944C307.337 616.399 308.157 612.255 308.549 609.713C308.941 607.17 309.401 603.039 309.574 600.509C309.746 597.979 309.847 593.897 309.797 591.396C309.747 588.894 309.499 584.884 309.236 582.434C308.972 579.984 308.377 576.065 307.897 573.683C307.417 571.3 306.475 567.49 305.808 565.204C305.142 562.919 303.842 559.246 302.949 557.035C302.057 554.823 300.438 551.341 299.346 549.259C298.254 547.178 296.299 543.876 295.006 541.924C293.714 539.973 291.438 536.907 289.94 535.094C288.442 533.282 285.85 530.473 284.159 528.83C283.477 528.164 282.679 527.417 281.881 526.689C283.541 527.665 285.249 528.698 286.488 529.508C288.663 530.94 291.527 532.965 292.863 534.021C294.198 535.077 296.804 537.34 298.656 539.072C300.508 540.803 303.36 543.742 305.01 545.626C306.661 547.51 309.19 550.696 310.638 552.714C312.085 554.733 314.281 558.136 315.518 560.302C316.755 562.469 318.627 566.041 319.658 568.298C320.688 570.556 322.2 574.3 323.006 576.638C323.812 578.976 324.984 582.868 325.582 585.29C326.179 587.712 326.987 591.703 327.366 594.185C327.746 596.668 328.183 600.736 328.335 603.256C328.486 605.776 328.566 609.882 328.484 612.447C328.402 615.013 328.086 619.14 327.767 621.69C327.447 624.24 326.769 628.402 326.221 630.947C325.674 633.493 324.595 637.626 323.808 640.149C323.02 642.672 321.544 646.748 320.512 649.227C319.479 651.706 317.603 655.701 316.323 658.129C315.044 660.557 312.786 664.399 311.288 666.699C309.789 668.998 307.683 672.032 306.592 673.456C305.502 674.88 303.165 677.654 301.39 679.632C299.615 681.61 296.618 684.675 294.704 686.459C292.789 688.242 289.569 690.975 287.518 692.561C285.467 694.146 282.059 696.545 279.902 697.921C277.744 699.296 274.162 701.362 271.899 702.516C269.635 703.67 265.917 705.396 263.592 706.343C261.268 707.29 257.422 708.652 255.026 709.38C252.63 710.108 248.705 711.112 246.268 711.609C243.832 712.106 239.838 712.745 237.369 713.017C234.9 713.289 230.869 713.54 228.388 713.58C225.907 713.621 221.869 713.484 219.389 713.283C216.908 713.083 212.896 712.56 210.43 712.114C207.965 711.668 203.994 710.745 201.572 710.053C199.15 709.361 195.241 708.032 192.864 707.084C190.487 706.135 186.725 704.415 184.424 703.198L184.415 703.222ZM322.279 673.163C320.776 675.46 318.66 678.488 317.564 679.903C316.467 681.318 314.108 684.079 312.309 686.048C310.509 688.018 307.478 691.051 305.533 692.816C303.588 694.582 300.312 697.289 298.231 698.845C296.15 700.401 292.668 702.767 290.462 704.114C288.257 705.461 284.598 707.477 282.293 708.612C279.987 709.747 276.166 711.407 273.778 712.323C271.39 713.238 267.441 714.534 264.999 715.229C262.558 715.925 258.488 716.855 255.981 717.311C253.474 717.767 249.331 718.329 246.78 718.529C244.229 718.73 240.066 718.926 237.506 718.921C234.946 718.915 230.761 718.698 228.188 718.443C225.616 718.188 221.451 717.575 218.897 717.077C216.344 716.58 212.208 715.566 209.686 714.815C207.163 714.064 203.099 712.638 200.619 711.635C199.934 711.356 199.137 711.018 198.267 710.624C199.327 710.976 200.335 711.285 201.166 711.526C203.628 712.229 207.673 713.166 210.175 713.622C212.677 714.077 216.764 714.602 219.282 714.808C221.801 715.014 225.9 715.157 228.427 715.108C230.954 715.059 235.042 714.812 237.55 714.533C240.059 714.255 244.111 713.616 246.59 713.108C249.069 712.6 253.048 711.593 255.486 710.843C257.925 710.093 261.817 708.722 264.179 707.762C266.54 706.801 270.325 705.054 272.613 703.868C274.901 702.681 278.537 700.594 280.726 699.195C282.915 697.797 286.379 695.361 288.459 693.757C290.538 692.153 293.803 689.375 295.744 687.566C297.685 685.756 300.735 682.652 302.535 680.641C304.335 678.631 306.69 675.826 307.803 674.374C308.916 672.921 311.053 669.847 312.571 667.523C314.089 665.2 316.379 661.294 317.679 658.831C318.979 656.368 320.882 652.318 321.923 649.803C322.965 647.288 324.47 643.152 325.269 640.589C326.068 638.026 327.165 633.844 327.72 631.256C328.274 628.667 328.976 624.454 329.285 621.863C329.594 619.271 329.914 615.058 329.99 612.471C330.066 609.885 329.999 605.698 329.841 603.139C329.683 600.58 329.241 596.449 328.855 593.928C328.469 591.406 327.659 587.36 327.043 584.898C326.428 582.436 325.258 578.492 324.425 576.108C323.592 573.725 322.057 569.92 321.018 567.617C319.98 565.313 318.08 561.678 316.817 559.496C315.553 557.314 313.325 553.857 311.853 551.8C310.38 549.743 307.813 546.512 306.131 544.591C304.449 542.67 301.553 539.688 299.671 537.927L299.369 537.65C299.807 537.966 300.19 538.256 300.497 538.496C301.906 539.589 304.638 541.938 306.593 543.724C308.549 545.51 311.551 548.543 313.298 550.484C315.044 552.425 317.72 555.702 319.26 557.775C320.799 559.848 323.133 563.337 324.46 565.551C325.787 567.764 327.777 571.417 328.89 573.723C330.004 576.03 331.643 579.848 332.537 582.238C333.43 584.628 334.703 588.579 335.379 591.047C336.056 593.516 336.955 597.56 337.4 600.082C337.845 602.603 338.375 606.725 338.583 609.279C338.792 611.832 338.946 616.011 338.918 618.585C338.891 621.159 338.652 625.355 338.388 627.931C338.123 630.507 337.486 634.7 336.974 637.266C336.462 639.832 335.427 643.979 334.661 646.526C333.895 649.073 332.452 653.152 331.435 655.646C330.417 658.139 328.557 662.138 327.28 664.562C326.003 666.985 323.778 670.852 322.275 673.149L322.279 673.163Z" fill="#FEF2DA"/>
<path d="M126.889 434.739L125.575 433.967L22.6378 609.143L23.9517 609.915L126.889 434.739Z" fill="#FEF2DA"/>
<path d="M65.964 501.36C66.8479 499.755 68.5611 496.579 69.7747 494.283C70.9883 491.987 72.9379 488.218 74.0785 485.957C75.2192 483.695 76.9817 480.063 78.046 477.851C79.1104 475.639 80.7008 472.16 81.6544 470.036C82.6079 467.912 84.0486 464.558 84.8785 462.544C85.7084 460.53 87.0081 457.305 87.7249 455.414C88.4416 453.522 89.5573 450.49 90.1764 448.695C90.7955 446.899 91.7049 444.088 92.2126 442.422C92.7204 440.756 93.4398 438.158 93.8366 436.651C94.2332 435.143 94.7421 432.793 94.9716 431.4C95.2011 430.007 95.5476 427.933 95.6784 426.718C95.8092 425.503 95.9068 423.672 95.9049 422.632C95.89 421.478 95.7975 420.325 95.6278 419.183C95.4536 418.223 95.178 417.284 94.8054 416.382C94.4376 415.608 93.9467 414.899 93.352 414.283C92.7421 413.741 92.0325 413.324 91.2628 413.055C90.593 412.852 89.8986 412.742 89.1988 412.727C88.4107 412.787 87.6299 412.921 86.8665 413.126C85.8236 413.432 84.8069 413.821 83.8261 414.29C82.6736 414.876 81.5535 415.523 80.4707 416.23C79.5173 416.849 77.8656 418.056 76.8155 418.89C75.7655 419.725 74.0074 421.223 72.8831 422.243C72.4074 422.672 71.7918 423.248 71.1538 423.853L71.1701 423.113C71.1987 421.36 71.0988 418.652 70.9673 417.041C70.8358 415.43 70.4999 412.943 70.212 411.488C69.8712 409.801 69.4335 408.135 68.9011 406.499C68.3685 405 67.7345 403.54 67.0038 402.127C66.2772 400.828 65.4461 399.589 64.5186 398.425C63.5806 397.341 62.5426 396.348 61.4184 395.459C60.2731 394.62 59.0465 393.9 57.7569 393.307C56.666 392.829 55.54 392.436 54.3887 392.13C53.1784 391.903 51.9539 391.759 50.7237 391.699C49.1685 391.656 47.6121 391.728 46.0671 391.913C45.5961 391.972 45.0086 392.07 44.39 392.19L44.2668 391.958C43.2554 390.166 42.1408 388.433 40.9288 386.77C39.7016 385.174 38.3749 383.657 36.9566 382.229C35.5086 380.862 33.9706 379.593 32.3528 378.432C30.7002 377.302 28.972 376.286 27.1802 375.393C25.6774 374.67 24.1366 374.028 22.5646 373.471C20.9587 372.994 19.3289 372.601 17.6817 372.295C17.556 372.268 17.4094 372.247 17.2697 372.224C15.9901 370.882 14.439 369.38 13.3348 368.372C9.58055 365.05 5.41345 362.226 0.936508 359.971C-0.917458 359.035 -3.4766 357.885 -4.76017 357.402C-5.03558 357.3 -5.37386 357.183 -5.7392 357.063C-7.58767 355.546 -10.4077 353.447 -12.2773 352.206C-14.2882 350.865 -17.6694 348.879 -19.815 347.777C-20.7876 347.276 -21.9158 346.72 -23.0148 346.204C-24.0655 345.445 -25.0965 344.733 -25.9467 344.174C-27.9609 342.849 -31.223 340.92 -33.5583 339.66C-35.9007 338.171 -39.3177 336.175 -41.5519 335.004C-43.9971 333.72 -47.3464 332.1 -49.0198 331.388C-50.6932 330.677 -54.1239 329.416 -56.6674 328.57C-59.2108 327.725 -63.3947 326.552 -65.9761 325.962C-68.5574 325.371 -72.7901 324.612 -75.391 324.276C-77.992 323.939 -82.2386 323.585 -84.8471 323.492C-87.4555 323.399 -91.6908 323.447 -94.2885 323.596C-96.8862 323.745 -101.075 324.186 -103.649 324.586C-106.223 324.985 -110.346 325.795 -112.862 326.417C-115.378 327.039 -119.383 328.208 -121.834 329.08C-124.285 329.953 -128.21 331.499 -130.575 332.575C-132.94 333.652 -136.725 335.581 -138.993 336.874C-141.261 338.166 -144.868 340.454 -147.024 341.966C-149.179 343.479 -152.575 346.109 -154.594 347.831C-156.613 349.553 -159.787 352.526 -161.663 354.456C-163.539 356.386 -166.446 359.687 -168.158 361.819C-169.871 363.952 -172.489 367.575 -174.013 369.907C-175.536 372.239 -177.827 376.138 -179.121 378.6C-180.414 381.061 -182.047 384.432 -182.765 386.116C-183.484 387.8 -184.764 391.242 -185.623 393.806C-186.481 396.369 -187.671 400.561 -188.275 403.162C-188.878 405.763 -189.667 410.014 -190.011 412.614C-190.355 415.215 -190.742 419.483 -190.87 422.098C-190.998 424.713 -190.953 428.958 -190.819 431.568C-190.686 434.177 -190.273 438.379 -189.907 440.954C-189.54 443.529 -188.743 447.667 -188.138 450.188C-187.534 452.708 -186.362 456.76 -185.527 459.209C-184.692 461.659 -183.158 465.587 -182.097 467.962C-181.036 470.338 -179.141 474.112 -177.861 476.387C-176.582 478.661 -174.328 482.256 -172.835 484.408C-171.342 486.56 -168.739 489.96 -167.023 491.954C-165.307 493.947 -162.375 497.139 -160.461 499.007C-158.548 500.875 -155.279 503.775 -153.163 505.478C-151.048 507.182 -147.449 509.792 -145.134 511.306C-143.978 512.068 -142.43 513.013 -140.867 513.931C-139.575 514.691 -138.287 515.447 -137.176 516.023C-136.166 516.67 -134.945 517.411 -133.706 518.139C-132.208 519.02 -130.699 519.871 -129.524 520.479C-128.464 521.031 -127.231 521.649 -126.046 522.221C-125.098 522.914 -124.177 523.562 -123.419 524.066C-122.417 524.738 -121.066 525.567 -119.704 526.367C-118.341 527.168 -116.955 527.947 -115.881 528.496C-113.742 529.599 -110.796 530.982 -109.321 531.571C-109.007 531.697 -108.623 531.846 -108.192 532.005C-106.625 533.35 -104.248 535.19 -102.658 536.266C-101.816 536.837 -100.638 537.571 -99.4645 538.26C-98.2907 538.95 -97.0989 539.609 -96.1675 540.08C-94.3179 541.013 -91.7588 542.163 -90.4708 542.648C-89.1829 543.134 -86.516 543.94 -84.5376 544.454L-83.9751 544.589C-83.0196 545.741 -81.8626 547.011 -81.0205 547.854C-79.574 549.235 -78.0361 550.517 -76.4172 551.691C-75.7368 552.168 -74.8219 552.747 -73.8847 553.298C-72.9474 553.848 -71.992 554.368 -71.2446 554.731C-69.7416 555.454 -68.2008 556.095 -66.629 556.653C-65.0248 557.13 -63.3963 557.521 -61.7505 557.826C-59.7395 558.176 -57.7089 558.404 -55.67 558.508C-55.0179 558.531 -54.2029 558.538 -53.3524 558.525L-53.3264 558.611C-52.7923 560.109 -52.1585 561.57 -51.429 562.983C-50.702 564.284 -49.8693 565.523 -48.9395 566.687C-48.0019 567.772 -46.9638 568.765 -45.8392 569.654C-44.694 570.492 -43.4673 571.213 -42.1777 571.805C-41.0881 572.282 -39.9636 572.675 -38.814 572.98C-37.6038 573.208 -36.3792 573.352 -35.1489 573.411C-33.5937 573.456 -32.0371 573.385 -30.4923 573.197C-28.8355 572.96 -27.1945 572.621 -25.5785 572.185C-23.8258 571.679 -22.0998 571.084 -20.4072 570.403C-18.9612 569.807 -16.5646 568.667 -15.0637 567.867C-14.3852 567.505 -13.5066 567.013 -12.6047 566.48C-12.6503 566.648 -12.6916 566.819 -12.7269 566.969C-13.1234 568.506 -13.6341 570.849 -13.8942 572.224C-14.1543 573.6 -14.4684 575.698 -14.601 576.907C-14.7335 578.115 -14.8294 579.952 -14.8274 580.992C-14.8126 582.147 -14.72 583.299 -14.5503 584.441C-14.378 585.402 -14.1023 586.341 -13.728 587.243C-13.3601 588.017 -12.8693 588.726 -12.2746 589.342C-11.6637 589.882 -10.9543 590.299 -10.1854 590.569C-9.5158 590.773 -8.82129 590.883 -8.12138 590.897C-7.3333 590.837 -6.55246 590.703 -5.78905 590.498C-4.74682 590.19 -3.73022 589.801 -2.74862 589.335C-1.59568 588.75 -0.475528 588.102 0.60675 587.395C1.56016 586.775 3.21183 585.568 4.26187 584.734C5.31191 583.9 7.07265 582.397 8.19433 581.381C9.31601 580.365 11.1945 578.572 12.3956 577.36C13.5966 576.148 15.5592 574.092 16.8138 572.729C18.0685 571.366 20.1401 569.014 21.4319 567.507C22.7237 566.001 24.881 563.392 26.2202 561.725C27.5595 560.057 29.7803 557.221 31.1489 555.423C32.5175 553.626 34.7904 550.56 36.1909 548.628C37.5915 546.695 39.894 543.429 41.3119 541.377C42.7297 539.325 45.0343 535.894 46.4823 533.701C47.9304 531.507 50.2447 527.9 51.6703 525.634C53.096 523.369 55.4228 519.579 56.8484 517.213C58.274 514.848 60.5477 510.968 61.9252 508.574C63.3026 506.18 65.0782 502.957 65.964 501.36ZM-152.209 504.305C-154.292 502.626 -157.52 499.768 -159.4 497.932C-161.279 496.096 -164.177 492.977 -165.859 490.986C-167.541 488.994 -170.103 485.654 -171.573 483.533C-173.043 481.413 -175.266 477.865 -176.525 475.626C-177.784 473.388 -179.648 469.661 -180.697 467.334C-181.745 465.007 -183.247 461.115 -184.074 458.712C-184.9 456.309 -186.047 452.314 -186.644 449.821C-187.242 447.328 -188.021 443.26 -188.377 440.737C-188.733 438.215 -189.162 434.052 -189.279 431.493C-189.396 428.935 -189.438 424.745 -189.326 422.168C-189.214 419.59 -188.84 415.374 -188.503 412.816C-188.167 410.258 -187.386 406.062 -186.79 403.504C-186.194 400.945 -185.022 396.814 -184.175 394.291C-183.329 391.767 -182.065 388.363 -181.364 386.709C-180.664 385.056 -179.037 381.746 -177.771 379.31C-176.504 376.874 -174.238 373.038 -172.735 370.741C-171.232 368.444 -168.654 364.879 -166.968 362.772C-165.282 360.666 -162.414 357.419 -160.571 355.516C-158.729 353.614 -155.6 350.685 -153.607 348.989C-151.614 347.292 -148.265 344.7 -146.14 343.211C-144.016 341.722 -140.468 339.464 -138.234 338.199C-136 336.934 -132.277 335.021 -129.941 333.963C-127.605 332.905 -123.746 331.361 -121.331 330.52C-118.916 329.68 -114.932 328.505 -112.455 327.889C-109.978 327.274 -105.905 326.47 -103.376 326.086C-100.846 325.702 -96.7197 325.277 -94.163 325.127C-91.6063 324.978 -87.4449 324.945 -84.8671 325.02C-82.2893 325.096 -78.1133 325.449 -75.5437 325.779C-72.9742 326.109 -68.8253 326.86 -66.2728 327.439C-63.7203 328.019 -59.6282 329.167 -57.1048 330.006C-54.5814 330.846 -51.211 332.089 -49.5708 332.787C-49.2122 332.939 -48.7721 333.133 -48.2821 333.362L-48.6719 333.233C-51.126 332.446 -55.1478 331.369 -57.6372 330.832C-60.1266 330.296 -64.2059 329.627 -66.7193 329.342C-69.2327 329.057 -73.3303 328.791 -75.8582 328.751C-78.386 328.711 -82.4786 328.837 -84.9974 329.032C-87.5163 329.228 -91.5785 329.744 -94.0734 330.189C-96.5683 330.634 -100.578 331.512 -103.026 332.179C-105.475 332.846 -109.412 334.102 -111.796 334.99C-114.18 335.879 -117.993 337.514 -120.323 338.612C-122.653 339.709 -126.326 341.698 -128.548 343.023C-130.771 344.349 -134.293 346.674 -136.409 348.209C-138.525 349.745 -141.86 352.411 -143.853 354.148C-145.846 355.886 -148.967 358.89 -150.814 360.831C-152.662 362.772 -155.547 366.097 -157.235 368.238C-158.923 370.379 -161.535 374.012 -163.056 376.34C-164.577 378.667 -166.864 382.569 -168.164 385.032C-169.464 387.495 -171.101 390.852 -171.828 392.531C-172.556 394.21 -173.861 397.644 -174.74 400.183C-175.619 402.723 -176.852 406.907 -177.484 409.485C-178.116 412.064 -178.964 416.286 -179.343 418.865C-179.722 421.445 -180.181 425.677 -180.335 428.265C-180.489 430.853 -180.548 435.055 -180.468 437.626C-180.389 440.198 -180.071 444.35 -179.766 446.889C-179.461 449.428 -178.766 453.5 -178.227 455.982C-177.688 458.464 -176.634 462.446 -175.876 464.857C-175.118 467.267 -173.703 471.125 -172.723 473.447C-171.742 475.77 -169.977 479.474 -168.785 481.697C-167.593 483.919 -165.478 487.439 -164.072 489.54C-162.667 491.64 -160.23 494.942 -158.59 496.915C-156.95 498.887 -154.187 501.956 -152.375 503.765C-151.76 504.374 -150.999 505.104 -150.176 505.859C-150.949 505.299 -151.632 504.768 -152.209 504.305ZM-136.948 514.352C-139.124 512.92 -142.498 510.441 -144.484 508.827C-146.469 507.212 -149.528 504.446 -151.315 502.664C-153.103 500.883 -155.849 497.876 -157.43 495.944C-159.011 494.012 -161.447 490.746 -162.812 488.688C-164.177 486.629 -166.276 483.153 -167.451 480.97C-168.625 478.787 -170.359 475.131 -171.329 472.85C-172.299 470.57 -173.673 466.753 -174.43 464.391C-175.187 462.029 -176.219 458.1 -176.745 455.656C-177.27 453.211 -177.955 449.192 -178.261 446.694C-178.566 444.196 -178.877 440.113 -178.959 437.575C-179.041 435.037 -178.976 430.905 -178.84 428.347C-178.704 425.79 -178.239 421.62 -177.864 419.086C-177.488 416.551 -176.657 412.379 -176.03 409.838C-175.403 407.298 -174.189 403.186 -173.32 400.675C-172.452 398.165 -171.169 394.777 -170.457 393.125C-169.745 391.472 -168.127 388.157 -166.839 385.734C-165.55 383.311 -163.302 379.464 -161.803 377.165C-160.305 374.865 -157.757 371.282 -156.064 369.174C-154.372 367.065 -151.558 363.792 -149.738 361.877C-147.917 359.961 -144.839 357.009 -142.874 355.29C-140.909 353.571 -137.624 350.947 -135.539 349.435C-133.454 347.922 -129.976 345.624 -127.792 344.323C-125.608 343.023 -121.969 341.072 -119.69 339.981C-117.41 338.889 -113.645 337.285 -111.294 336.412C-108.943 335.54 -105.066 334.296 -102.655 333.642C-100.243 332.988 -96.2907 332.107 -93.8427 331.682C-91.3947 331.256 -87.4013 330.747 -84.9278 330.548C-82.4543 330.35 -78.4243 330.24 -75.9279 330.273C-73.4315 330.306 -69.4019 330.568 -66.9243 330.844C-64.4467 331.12 -60.4468 331.783 -57.9932 332.31C-55.5396 332.838 -51.585 333.899 -49.1756 334.672C-46.7661 335.444 -43.5182 336.615 -41.9438 337.275C-40.3694 337.935 -37.2187 339.462 -34.8989 340.648C-33.7442 341.25 -32.2571 342.088 -30.7855 342.953L-30.1943 343.3C-31.2055 342.966 -32.2464 342.631 -33.1726 342.353C-35.4314 341.674 -39.1536 340.779 -41.459 340.351C-43.7644 339.922 -47.5529 339.431 -49.8911 339.248C-52.2293 339.066 -56.0492 338.969 -58.4106 339.027C-60.772 339.085 -64.5974 339.368 -66.9568 339.663C-69.3162 339.958 -73.1305 340.613 -75.4853 341.141C-77.84 341.669 -81.6086 342.688 -83.9082 343.443C-86.2079 344.198 -89.9394 345.574 -92.205 346.532C-94.4707 347.49 -98.1084 349.229 -100.307 350.403C-102.505 351.577 -106.036 353.656 -108.16 355.033C-110.283 356.411 -113.669 358.823 -115.702 360.407C-117.734 361.992 -120.952 364.72 -122.875 366.499C-124.798 368.277 -127.833 371.326 -129.633 373.295C-131.432 375.265 -134.253 378.622 -135.912 380.774C-137.572 382.926 -140.152 386.584 -141.659 388.919C-143.167 391.255 -145.456 395.149 -146.762 397.603C-148.068 400.056 -149.736 403.406 -150.476 405.066C-151.216 406.726 -152.571 410.136 -153.493 412.657C-154.414 415.177 -155.721 419.306 -156.411 421.845C-157.102 424.383 -158.058 428.547 -158.515 431.081C-158.973 433.614 -159.563 437.757 -159.807 440.298C-160.051 442.839 -160.274 446.938 -160.3 449.449C-160.325 451.959 -160.191 456.002 -160.004 458.472C-159.818 460.942 -159.331 464.897 -158.924 467.302C-158.516 469.707 -157.688 473.562 -157.072 475.883C-156.456 478.203 -155.289 481.922 -154.464 484.159C-153.64 486.395 -152.137 489.945 -151.112 492.07C-150.086 494.195 -148.243 497.555 -147.012 499.553C-145.782 501.55 -143.614 504.7 -142.186 506.56C-140.757 508.42 -138.269 511.316 -136.643 513.021C-135.512 514.205 -133.821 515.859 -132.264 517.24C-133.94 516.261 -135.694 515.195 -136.948 514.352ZM-115.185 527.141C-117.288 526.058 -120.604 524.11 -122.574 522.799C-124.543 521.488 -127.601 519.202 -129.382 517.701C-131.163 516.2 -133.917 513.626 -135.511 511.957C-137.106 510.289 -139.543 507.447 -140.947 505.625C-142.351 503.803 -144.472 500.715 -145.68 498.749C-146.887 496.783 -148.696 493.484 -149.704 491.399C-150.712 489.314 -152.188 485.809 -153.002 483.626C-153.817 481.442 -154.957 477.757 -155.567 475.487C-156.178 473.217 -156.988 469.413 -157.387 467.043C-157.786 464.673 -158.264 460.775 -158.454 458.35C-158.644 455.926 -158.775 451.938 -158.747 449.464C-158.72 446.99 -158.505 442.945 -158.264 440.45C-158.023 437.954 -157.445 433.851 -156.992 431.356C-156.539 428.861 -155.601 424.757 -154.917 422.251C-154.234 419.744 -152.94 415.678 -152.03 413.186C-151.12 410.694 -149.772 407.338 -149.059 405.693C-148.345 404.047 -146.685 400.751 -145.39 398.326C-144.095 395.901 -141.842 392.057 -140.349 389.748C-138.857 387.439 -136.325 383.853 -134.678 381.711C-133.031 379.57 -130.257 376.274 -128.485 374.33C-126.712 372.386 -123.712 369.376 -121.818 367.628C-119.924 365.879 -116.747 363.179 -114.75 361.615C-112.753 360.052 -109.406 357.676 -107.311 356.317C-105.216 354.958 -101.769 352.901 -99.5789 351.751C-97.389 350.601 -93.8303 348.887 -91.5995 347.938C-89.3686 346.989 -85.7005 345.64 -83.4145 344.919C-81.1285 344.197 -77.4122 343.177 -75.1131 342.664C-72.814 342.15 -69.0528 341.505 -66.7369 341.214C-64.4211 340.923 -60.6539 340.659 -58.3397 340.591C-56.0254 340.523 -52.2604 340.623 -49.9624 340.794C-47.6644 340.964 -43.9623 341.452 -41.6926 341.871C-39.423 342.29 -35.782 343.173 -33.5652 343.833C-31.3484 344.492 -28.385 345.526 -26.9525 346.096C-25.5201 346.667 -22.6348 348.043 -20.519 349.116C-19.4694 349.656 -18.1138 350.417 -16.7779 351.202C-15.4421 351.987 -14.1173 352.801 -13.1303 353.457C-12.1433 354.114 -10.9902 354.939 -9.80689 355.823L-10.6927 355.586C-13.1 354.989 -15.5358 354.512 -17.991 354.159C-20.0388 353.893 -23.3999 353.647 -25.4822 353.621C-27.5646 353.595 -30.986 353.732 -33.1021 353.934C-35.2182 354.136 -38.6652 354.648 -40.7968 355.077C-42.9284 355.505 -46.3862 356.376 -48.5194 357.028C-50.6526 357.681 -54.0978 358.901 -56.2055 359.781C-58.3132 360.66 -61.7479 362.193 -63.8191 363.271C-65.8902 364.349 -69.26 366.234 -71.3077 367.502C-73.3554 368.771 -76.6248 370.986 -78.6107 372.45C-80.5966 373.915 -83.7709 376.439 -85.6855 378.093C-87.6001 379.746 -90.6665 382.558 -92.4801 384.401C-94.2936 386.244 -97.2075 389.358 -98.9299 391.367C-100.652 393.375 -103.386 396.784 -105.006 398.959C-106.626 401.134 -109.155 404.816 -110.647 407.155C-112.139 409.493 -114.423 413.39 -115.744 415.829C-117.065 418.268 -118.757 421.599 -119.517 423.253C-120.277 424.907 -121.702 428.264 -122.682 430.744C-123.662 433.224 -125.085 437.28 -125.865 439.771C-126.646 442.262 -127.752 446.332 -128.314 448.792C-128.876 451.252 -129.664 455.291 -130.044 457.752C-130.424 460.213 -130.875 464.179 -131.053 466.599C-131.232 469.019 -131.365 472.906 -131.35 475.275C-131.334 477.644 -131.145 481.425 -130.93 483.716C-130.715 486.008 -130.213 489.666 -129.826 491.864C-129.438 494.062 -128.603 497.574 -128.004 499.684C-127.406 501.793 -126.278 505.117 -125.488 507.103C-124.699 509.089 -123.261 512.217 -122.283 514.072C-121.305 515.927 -119.558 518.83 -118.395 520.54C-117.231 522.251 -115.173 524.894 -113.823 526.437C-113.17 527.18 -112.284 528.12 -111.377 529.054C-112.631 528.429 -114.028 527.749 -115.185 527.141ZM-89.9358 541.217C-91.1817 540.75 -93.6623 539.617 -95.4845 538.717C-99.8453 536.522 -103.903 533.771 -107.556 530.532C-109.348 528.909 -111.054 527.194 -112.667 525.393C-113.981 523.889 -115.983 521.309 -117.124 519.641C-118.265 517.973 -119.969 515.137 -120.925 513.325C-121.881 511.512 -123.287 508.45 -124.062 506.502C-124.838 504.553 -125.929 501.275 -126.529 499.229C-127.13 497.183 -127.91 493.698 -128.317 491.553C-128.724 489.408 -129.215 485.78 -129.423 483.528C-129.632 481.276 -129.819 477.543 -129.84 475.212C-129.861 472.881 -129.746 469.037 -129.54 466.68C-129.333 464.324 -128.917 460.385 -128.539 457.958C-128.162 455.531 -127.396 451.55 -126.835 449.113C-126.275 446.675 -125.179 442.664 -124.412 440.206C-123.645 437.748 -122.237 433.737 -121.265 431.282C-120.294 428.826 -118.898 425.498 -118.138 423.874C-117.378 422.25 -115.705 418.961 -114.412 416.53C-113.118 414.098 -110.843 410.267 -109.371 407.952C-107.899 405.637 -105.391 402.001 -103.793 399.843C-102.195 397.684 -99.4963 394.326 -97.7868 392.339C-96.0773 390.352 -93.2137 387.274 -91.3962 385.475C-89.5788 383.675 -86.5969 380.867 -84.7326 379.248C-82.8683 377.63 -79.7086 375.121 -77.7513 373.675C-75.794 372.229 -72.5566 370.049 -70.5444 368.801C-68.5323 367.552 -65.2225 365.68 -63.1668 364.628C-61.1112 363.576 -57.7532 362.033 -55.6731 361.191C-53.593 360.348 -50.2034 359.142 -48.1145 358.505C-46.0257 357.868 -42.6235 357.012 -40.538 356.591C-38.4525 356.171 -35.0682 355.676 -32.9974 355.471C-30.9266 355.266 -27.5707 355.12 -25.5422 355.167C-23.5137 355.214 -20.2279 355.428 -18.228 355.695C-15.818 356.023 -13.4267 356.475 -11.0636 357.049C-9.12533 357.551 -6.52132 358.344 -5.28412 358.805C-4.04693 359.267 -1.55326 360.408 0.26463 361.305C1.1741 361.763 2.33269 362.408 3.47582 363.08C4.61893 363.752 5.74661 364.45 6.58469 365.019C8.57524 366.411 10.4902 367.909 12.3213 369.505C13.0344 370.136 13.9237 370.989 14.8046 371.867C13.6608 371.737 12.4947 371.636 11.6019 371.601C9.50026 371.546 7.39698 371.604 5.3013 371.775C3.5464 371.924 0.628936 372.387 -1.1788 372.776C-2.98655 373.165 -5.9517 373.959 -7.79426 374.558C-9.6368 375.157 -12.6399 376.307 -14.4964 377.11C-16.3528 377.913 -19.3766 379.398 -21.2444 380.401C-23.1123 381.404 -26.1299 383.2 -27.9908 384.402C-29.8517 385.603 -32.8737 387.698 -34.6973 389.086C-36.5209 390.475 -39.5063 392.868 -41.3144 394.431C-43.1226 395.994 -46.0297 398.675 -47.7797 400.42C-49.5296 402.165 -52.3796 405.11 -54.0899 407.007C-55.8001 408.905 -58.5275 412.123 -60.1711 414.178C-61.8146 416.233 -64.4292 419.699 -65.9895 421.903C-67.5499 424.108 -70.0135 427.799 -71.494 430.168C-72.9745 432.537 -75.2518 436.402 -76.5862 438.834C-77.9206 441.265 -79.6555 444.558 -80.4547 446.189C-81.2539 447.82 -82.7613 451.117 -83.8072 453.558C-84.853 456 -86.4357 459.967 -87.3136 462.383C-88.1914 464.8 -89.4964 468.735 -90.207 471.138C-90.9176 473.54 -91.9374 477.401 -92.4811 479.76C-93.0247 482.119 -93.7636 485.904 -94.1429 488.224C-94.5222 490.544 -94.9805 494.221 -95.1879 496.459C-95.3953 498.697 -95.5696 502.253 -95.6026 504.405C-95.6356 506.556 -95.5383 509.971 -95.4005 512.022C-95.2626 514.074 -94.8871 517.315 -94.5732 519.258C-94.2594 521.2 -93.611 524.248 -93.1222 526.063C-92.6334 527.879 -91.7237 530.702 -91.0478 532.38C-90.2471 534.354 -89.3442 536.285 -88.3426 538.164C-87.6352 539.447 -86.4655 541.297 -85.5056 542.652C-87.171 542.157 -88.9686 541.596 -89.9435 541.23L-89.9358 541.217ZM-55.5976 556.981C-57.5631 556.883 -59.5207 556.665 -61.4592 556.328C-63.041 556.036 -64.6059 555.66 -66.1473 555.201C-67.6548 554.667 -69.132 554.051 -70.5723 553.356C-72.29 552.5 -73.9465 551.527 -75.5302 550.443C-77.0817 549.316 -78.5569 548.089 -79.9465 546.768C-81.3105 545.394 -82.5863 543.935 -83.7664 542.399C-84.936 540.792 -86.0127 539.119 -86.9914 537.389C-87.9551 535.57 -88.8243 533.702 -89.5956 531.794C-90.2362 530.167 -91.1436 527.409 -91.6172 525.638C-92.0908 523.867 -92.717 520.862 -93.0154 518.993C-93.3138 517.125 -93.6865 513.908 -93.8249 511.898C-93.9633 509.887 -94.1005 506.491 -94.0539 504.406C-94.0072 502.321 -93.8424 498.772 -93.6425 496.577C-93.4425 494.382 -92.9884 490.731 -92.6192 488.458C-92.2499 486.185 -91.5178 482.433 -90.9877 480.107C-90.4577 477.781 -89.437 473.938 -88.7356 471.572C-88.0342 469.205 -86.7481 465.312 -85.878 462.908C-85.0079 460.505 -83.4447 456.592 -82.3978 454.168C-81.351 451.745 -79.8853 448.459 -79.098 446.868C-78.3107 445.278 -76.5871 441.984 -75.2682 439.579C-73.9492 437.174 -71.677 433.317 -70.2171 430.983C-68.7572 428.649 -66.3091 424.984 -64.7591 422.798C-63.209 420.611 -60.6264 417.179 -58.9932 415.141C-57.3599 413.104 -54.6645 409.921 -52.9792 408.055C-51.294 406.19 -48.4857 403.256 -46.7373 401.534C-44.989 399.812 -42.1163 397.17 -40.3185 395.624C-38.5207 394.079 -35.5986 391.713 -33.7835 390.349C-31.9685 388.985 -29.0047 386.909 -27.1698 385.722C-25.3349 384.535 -22.3562 382.774 -20.5214 381.788C-18.6865 380.801 -15.7148 379.344 -13.9019 378.545C-12.0889 377.746 -9.13352 376.627 -7.33529 376.043C-5.53706 375.46 -2.63632 374.675 -0.87728 374.298C0.881763 373.922 3.72193 373.49 5.42966 373.331C7.45923 373.164 9.4963 373.109 11.5317 373.165C13.5018 373.251 15.4647 373.456 17.4094 373.781C18.9909 374.074 20.5558 374.45 22.0976 374.907C23.6049 375.442 25.0821 376.058 26.5225 376.752C27.2393 377.097 28.1526 377.598 29.0505 378.126C29.9483 378.653 30.8307 379.207 31.4805 379.666C33.0334 380.793 34.5102 382.021 35.9011 383.343C37.2637 384.717 38.5381 386.175 39.7167 387.709C40.8451 389.259 41.8871 390.87 42.8381 392.535C42.2274 392.672 41.6438 392.812 41.163 392.949C39.7717 393.311 37.4692 394.141 35.9917 394.73C34.5143 395.319 32.1491 396.466 30.6482 397.266C29.1473 398.065 26.6767 399.522 25.1374 400.517C23.5981 401.513 21.0657 403.275 19.4957 404.453C17.9256 405.631 15.3504 407.687 13.7618 409.037C12.1732 410.387 9.57424 412.724 7.97146 414.248C6.36868 415.772 3.77379 418.383 2.15656 420.053C0.539337 421.722 -2.04552 424.587 -3.64215 426.421C-5.2388 428.256 -7.79996 431.341 -9.37961 433.327C-10.9593 435.314 -13.4906 438.629 -15.0282 440.734C-16.5659 442.839 -19.0473 446.39 -20.5437 448.626C-22.0402 450.862 -24.4407 454.596 -25.8959 456.962C-27.3512 459.328 -29.6249 463.208 -30.983 465.619C-32.3411 468.031 -34.1206 471.31 -34.9445 472.902C-35.7684 474.495 -37.3799 477.749 -38.5177 480.136C-39.6555 482.524 -41.4006 486.366 -42.3887 488.729C-43.3768 491.093 -44.9211 494.864 -45.7912 497.167C-46.6613 499.47 -47.9596 503.173 -48.7019 505.439C-49.4442 507.705 -50.5188 511.268 -51.1129 513.432C-51.7071 515.597 -52.568 519.067 -53.0251 521.159C-53.4822 523.25 -54.1058 526.547 -54.4096 528.528C-54.7133 530.509 -55.1066 533.635 -55.2753 535.506C-55.4441 537.378 -55.5923 540.317 -55.5956 542.068C-55.5989 543.818 -55.5225 546.535 -55.3884 548.142C-55.2544 549.749 -54.921 552.24 -54.6375 553.693C-54.4524 554.651 -54.1346 555.935 -53.8137 557.074C-54.4817 557.018 -55.1032 557.012 -55.6141 556.989L-55.5976 556.981ZM-15.8012 566.526C-17.2665 567.305 -19.6067 568.419 -21.0128 568.997C-22.4188 569.575 -24.652 570.357 -25.9919 570.732C-27.5355 571.151 -29.1033 571.475 -30.6864 571.702C-32.1398 571.869 -33.6033 571.93 -35.0653 571.884C-36.2075 571.832 -37.3447 571.7 -38.4685 571.489C-39.5258 571.207 -40.5603 570.846 -41.5631 570.408C-42.7393 569.859 -43.8611 569.2 -44.9136 568.44C-45.9449 567.618 -46.8981 566.702 -47.7609 565.704C-48.6259 564.618 -49.4018 563.464 -50.0809 562.253C-50.774 560.917 -51.3729 559.534 -51.8734 558.114C-52.3823 556.544 -52.8034 554.948 -53.1346 553.331C-53.4116 551.918 -53.7365 549.502 -53.8623 547.942C-53.9881 546.381 -54.0798 543.719 -54.0613 542.013C-54.0428 540.307 -53.883 537.398 -53.7312 535.576C-53.5795 533.754 -53.1922 530.648 -52.8794 528.702C-52.5666 526.756 -51.9541 523.487 -51.5037 521.427C-51.0533 519.367 -50.2094 515.946 -49.6212 513.802C-49.0329 511.657 -47.961 508.099 -47.2331 505.877C-46.5052 503.656 -45.2093 499.987 -44.3451 497.704C-43.4809 495.421 -41.9912 491.683 -40.9962 489.317C-40.0011 486.952 -38.2635 483.153 -37.1561 480.777C-36.0487 478.401 -34.4501 475.169 -33.6043 473.59C-32.7585 472.01 -31.0153 468.763 -29.6642 466.353C-28.313 463.943 -26.046 460.095 -24.608 457.749C-23.17 455.402 -20.7773 451.681 -19.2911 449.463C-17.805 447.244 -15.3355 443.734 -13.8066 441.623C-12.2777 439.513 -9.76438 436.228 -8.19761 434.264C-6.63085 432.299 -4.05909 429.226 -2.50239 427.41C-0.945698 425.593 1.65435 422.772 3.24968 421.09C4.845 419.408 7.42029 416.851 8.99086 415.331C10.5614 413.811 13.1485 411.514 14.7181 410.177C16.2876 408.84 18.8291 406.811 20.3818 405.652C21.9346 404.494 24.435 402.766 25.9352 401.777C27.4354 400.788 29.8714 399.37 31.3412 398.593C32.8109 397.817 35.1466 396.7 36.5484 396.119C37.9501 395.539 40.192 394.762 41.5274 394.384C43.0719 393.968 44.6395 393.644 46.222 393.414C47.6754 393.248 49.1389 393.187 50.6008 393.232C51.743 393.287 52.88 393.419 54.0041 393.627C55.0614 393.909 56.0958 394.27 57.0987 394.708C58.2749 395.258 59.3967 395.917 60.4492 396.677C61.4809 397.498 62.434 398.414 63.2965 399.412C64.1633 400.497 64.9392 401.651 65.6165 402.864C66.309 404.2 66.908 405.583 67.409 407.003C67.9194 408.573 68.3419 410.17 68.6745 411.788C68.9472 413.199 69.2721 415.614 69.4023 417.177C69.5325 418.74 69.6043 421.426 69.6013 423.106C69.5919 423.743 69.5648 424.541 69.5301 425.382C69.2104 425.696 68.9122 425.993 68.646 426.255C67.4597 427.452 65.4729 429.529 64.2278 430.886C62.9826 432.243 60.9015 434.601 59.6097 436.108C58.318 437.614 56.1964 440.232 54.8644 441.927C53.5324 443.623 51.3044 446.432 49.9358 448.229C48.5671 450.027 46.3046 453.075 44.8937 455.025C43.4828 456.974 41.2009 460.206 39.7772 462.278C38.3534 464.35 36.0253 467.79 34.6067 469.954C33.188 472.117 30.8528 475.731 29.4143 478.018C27.9758 480.306 25.6619 484.073 24.2363 486.439C22.8107 488.805 20.5369 492.684 19.1595 495.078C17.7821 497.473 15.9551 500.712 15.0849 502.283C14.2146 503.854 12.5109 507.024 11.2741 509.36C10.0374 511.695 8.10323 515.438 6.97032 517.686C5.83742 519.935 4.04807 523.592 3.01308 525.774C1.97809 527.957 0.348022 531.483 -0.595238 533.589C-1.5385 535.696 -2.98356 539.048 -3.81938 541.082C-4.65518 543.116 -5.9335 546.294 -6.66572 548.212C-7.39794 550.13 -8.49824 553.135 -9.11734 554.931C-9.73642 556.726 -10.6483 559.541 -11.1535 561.203C-11.4265 562.099 -11.7695 563.254 -12.0675 564.383C-13.376 565.166 -14.82 565.999 -15.8177 566.534L-15.8012 566.526ZM55.528 516.402C54.1153 518.746 51.8039 522.509 50.3654 524.797C48.9269 527.084 46.6262 530.659 45.1929 532.837C43.7596 535.016 41.4532 538.439 40.0404 540.482C38.6277 542.525 36.3451 545.768 34.9393 547.709C33.5336 549.65 31.3038 552.653 29.9223 554.472C28.5408 556.292 26.3623 559.077 25.0187 560.741C23.6751 562.406 21.5522 564.976 20.2579 566.487C18.9635 567.998 16.9195 570.313 15.6744 571.67C14.4292 573.027 12.4791 575.102 11.3002 576.256C10.1213 577.41 8.27497 579.198 7.16978 580.207C6.0646 581.215 4.34098 582.674 3.31001 583.496C2.27904 584.318 0.700016 585.461 -0.235058 586.08C-1.26553 586.748 -2.32928 587.364 -3.42221 587.924C-4.31801 588.353 -5.24491 588.714 -6.19495 589.003C-6.84424 589.184 -7.50814 589.307 -8.17893 589.371C-8.71005 589.352 -9.23627 589.263 -9.74386 589.106C-10.2937 588.913 -10.8009 588.615 -11.2374 588.229C-11.6919 587.751 -12.0689 587.205 -12.3546 586.61C-12.6763 585.83 -12.9186 585.02 -13.0778 584.191C-13.2321 583.13 -13.3158 582.06 -13.3284 580.988C-13.336 579.998 -13.2343 578.241 -13.1092 577.075C-12.9841 575.91 -12.6749 573.849 -12.424 572.51C-12.1732 571.171 -11.6494 568.835 -11.2813 567.347C-10.9132 565.858 -10.1832 563.272 -9.69088 561.632C-9.19857 559.992 -8.2681 557.205 -7.67245 555.42C-7.07681 553.634 -5.96596 550.641 -5.24225 548.747C-4.51854 546.854 -3.23686 543.66 -2.40336 541.66C-1.56988 539.66 -0.119667 536.3 0.802728 534.199C1.72511 532.097 3.34772 528.614 4.39045 526.419C5.43317 524.223 7.19952 520.635 8.33657 518.36C9.4736 516.084 11.3882 512.394 12.6223 510.063C13.8565 507.733 15.562 504.569 16.4202 503.009C17.2783 501.448 19.1089 498.223 20.4819 495.826C21.855 493.429 24.1272 489.572 25.5433 487.213C26.9593 484.853 29.2802 481.084 30.7058 478.818C32.1314 476.553 34.4579 472.934 35.8784 470.778C37.2988 468.621 39.6052 465.198 41.0308 463.133C42.4564 461.068 44.739 457.825 46.1319 455.906C47.5247 453.987 49.7855 450.931 51.1489 449.143C52.5124 447.354 54.7133 444.541 56.0526 442.873C57.3918 441.206 59.519 438.639 60.8134 437.128C62.1077 435.617 64.1517 433.302 65.3969 431.945C66.642 430.588 68.5793 428.535 69.7711 427.359C70.9629 426.183 72.7919 424.414 73.9015 423.408C75.011 422.402 76.7303 420.941 77.7612 420.119C78.7922 419.297 80.3738 418.149 81.3037 417.539C82.3331 416.866 83.3979 416.249 84.4935 415.691C85.3892 415.259 86.3178 414.899 87.2706 414.615C87.9195 414.432 88.5835 414.309 89.2545 414.247C89.7857 414.265 90.3119 414.354 90.8195 414.511C91.3679 414.708 91.8746 415.005 92.313 415.389C92.7676 415.867 93.1446 416.413 93.4303 417.007C93.7518 417.79 93.9901 418.604 94.1413 419.437C94.2956 420.498 94.3793 421.568 94.3919 422.64C94.3996 423.63 94.3004 425.383 94.1771 426.555C94.0538 427.728 93.7384 429.779 93.4876 431.118C93.2367 432.457 92.7129 434.793 92.3448 436.281C91.9767 437.77 91.2467 440.356 90.7544 441.996C90.2621 443.636 89.3291 446.427 88.736 448.208C88.1429 449.99 87.0295 452.987 86.3058 454.881C85.5821 456.774 84.3081 459.955 83.4669 461.968C82.6257 463.981 81.1935 467.311 80.2608 469.429C79.3281 471.548 77.7202 475.016 76.6731 477.209C75.626 479.403 73.8511 483.015 72.7269 485.269C71.6028 487.522 69.6746 491.245 68.4412 493.565C67.2078 495.884 65.5247 499.019 64.6433 500.619C63.762 502.219 61.9436 505.434 60.5816 507.802C59.2196 510.17 56.9224 514.059 55.5064 516.419L55.528 516.402Z" fill="#FEF2DA"/>
</svg>
