<svg width="24" height="24" viewBox="0 0 24 24" fill="none" xmlns="http://www.w3.org/2000/svg">
<rect width="24" height="24" rx="12" fill="white"/>
<path d="M9.99792 16.2197C9.76258 16.2187 9.53723 16.1244 9.37131 15.9575L6.9271 13.5133C6.76032 13.3465 6.66663 13.1203 6.66663 12.8845C6.66663 12.6486 6.76032 12.4224 6.9271 12.2557C7.09387 12.0889 7.32007 11.9952 7.55593 11.9952C7.79178 11.9952 8.01798 12.0889 8.18476 12.2557L10.0024 14.0733L15.8152 8.26047C15.9819 8.09369 16.2081 8 16.444 8C16.6798 8 16.906 8.09369 17.0728 8.26047C17.2396 8.42725 17.3333 8.65344 17.3333 8.8893C17.3333 9.12516 17.2396 9.35136 17.0728 9.51813L10.629 15.962C10.5459 16.0444 10.4474 16.1095 10.3391 16.1538C10.2309 16.198 10.1149 16.2204 9.99792 16.2197Z" fill="#739EF1"/>
</svg>
