<svg width="57" height="56" viewBox="-1 -2 59 61" fill="none" xmlns="http://www.w3.org/2000/svg">
<path d="M22.175 32.675C21.7194 33.1307 21.7194 33.8694 22.175 34.325C22.6307 34.7807 23.3694 34.7807 23.825 34.325L28.5 29.6501L33.1749 34.325C33.6305 34.7807 34.3693 34.7807 34.8249 34.325C35.2805 33.8694 35.2805 33.1307 34.8249 32.675L30.1499 28.0001L34.8249 23.3251C35.2805 22.8695 35.2805 22.1308 34.8249 21.6751C34.3693 21.2195 33.6306 21.2195 33.1749 21.6751L28.5 26.3501L23.825 21.6751C23.3694 21.2195 22.6306 21.2195 22.175 21.6751C21.7194 22.1308 21.7194 22.8695 22.175 23.3251L26.85 28.0001L22.175 32.675Z" fill="#FF6D3B"/>
<path d="M28.5 54.5C13.8645 54.5 2 42.6355 2 28H-1C-1 44.2924 12.2076 57.5 28.5 57.5V54.5ZM55 28C55 42.6355 43.1355 54.5 28.5 54.5V57.5C44.7924 57.5 58 44.2924 58 28H55ZM28.5 1.5C43.1355 1.5 55 13.3645 55 28H58C58 11.7076 44.7924 -1.5 28.5 -1.5V1.5ZM28.5 -1.5C12.2076 -1.5 -1 11.7076 -1 28H2C2 13.3645 13.8645 1.5 28.5 1.5V-1.5Z" fill="#FF6D3B"/>
</svg>
