<svg width="16" height="16" viewBox="0 0 16 16" fill="none" xmlns="http://www.w3.org/2000/svg">
<path d="M5.99792 12.2197C5.76258 12.2187 5.53723 12.1244 5.37131 11.9575L2.9271 9.51332C2.76032 9.34654 2.66663 9.12034 2.66663 8.88449C2.66663 8.64863 2.76032 8.42243 2.9271 8.25566C3.09387 8.08888 3.32007 7.99518 3.55593 7.99518C3.79178 7.99518 4.01798 8.08888 4.18476 8.25566L6.00237 10.0733L11.8152 4.26047C11.9819 4.09369 12.2081 4 12.444 4C12.6798 4 12.906 4.09369 13.0728 4.26047C13.2396 4.42725 13.3333 4.65344 13.3333 4.8893C13.3333 5.12516 13.2396 5.35136 13.0728 5.51813L6.62898 11.962C6.54592 12.0444 6.44743 12.1095 6.33914 12.1538C6.23085 12.198 6.1149 12.2204 5.99792 12.2197Z" fill="#575FCC"/>
</svg>
