<svg width="24" height="24" viewBox="0 0 24 24" fill="none" xmlns="http://www.w3.org/2000/svg">
<path d="M20.7001 17.1C19.7001 14.7 17.8001 12.9 15.5001 12C16.8001 11 17.6001 9.4 17.6001 7.7C17.6001 4.5 15.1001 2 12.0001 2C8.90006 2 6.40006 4.5 6.40006 7.6C6.40006 9.3 7.20006 10.9 8.50006 11.9C6.20006 12.8 4.30006 14.6 3.30006 17C2.90006 18 3.00006 19.2 3.60006 20.1C4.20006 21.1 5.30006 21.6 6.50006 21.6H17.6001C18.8001 21.6 19.8001 21 20.5001 20.1C21.1001 19.2 21.2001 18.1 20.7001 17.1Z" fill="#FF6D3B"/>
</svg>
