<svg width="9" height="11" viewBox="0 0 9 11" fill="none" xmlns="http://www.w3.org/2000/svg">
<path d="M1.455 11V0.289999H4.275C5.585 0.289999 6.555 0.554999 7.185 1.085C7.825 1.615 8.145 2.385 8.145 3.395C8.145 4.075 7.99 4.66 7.68 5.15C7.37 5.63 6.91 6 6.3 6.26C5.7 6.52 4.955 6.65 4.065 6.65H2.805V11H1.455ZM0.15 8.96V7.985H5.28V8.96H0.15ZM0.15 6.65V5.51H3.585V6.65H0.15ZM3.87 5.51C4.48 5.51 4.995 5.445 5.415 5.315C5.845 5.185 6.175 4.97 6.405 4.67C6.635 4.37 6.75 3.96 6.75 3.44C6.75 2.76 6.54 2.255 6.12 1.925C5.7 1.595 5.045 1.43 4.155 1.43H2.805V5.51H3.87Z" fill="#74767A"/>
</svg>