<svg width="20" height="20" viewBox="0 0 20 20" fill="none" xmlns="http://www.w3.org/2000/svg">
<g clip-path="url(#clip0_640_4133)">
<path d="M3.71429 8C3.71429 7.15236 3.96564 6.32377 4.43656 5.61898C4.90748 4.9142 5.57682 4.36489 6.35993 4.04052C7.14304 3.71614 8.00475 3.63127 8.8361 3.79663C9.66745 3.962 10.4311 4.37017 11.0305 4.96954C11.6298 5.56891 12.038 6.33255 12.2034 7.1639C12.3687 7.99524 12.2839 8.85696 11.9595 9.64007C11.6351 10.4232 11.0858 11.0925 10.381 11.5634C9.67623 12.0344 8.84763 12.2857 8 12.2857C6.86336 12.2857 5.77327 11.8342 4.96954 11.0305C4.16581 10.2267 3.71429 9.13664 3.71429 8ZM2 8C2 9.18669 2.35189 10.3467 3.01118 11.3334C3.67047 12.3201 4.60754 13.0891 5.7039 13.5433C6.80026 13.9974 8.00665 14.1162 9.17054 13.8847C10.3344 13.6532 11.4035 13.0818 12.2426 12.2426C13.0818 11.4035 13.6532 10.3344 13.8847 9.17054C14.1162 8.00665 13.9974 6.80026 13.5433 5.7039C13.0891 4.60754 12.3201 3.67047 11.3334 3.01118C10.3467 2.35189 9.18669 2 8 2C6.4087 2 4.88258 2.63214 3.75736 3.75736C2.63214 4.88258 2 6.4087 2 8Z" fill="white"/>
<path fill-rule="evenodd" clip-rule="evenodd" d="M11.0344 11.0343C11.3468 10.7219 11.8533 10.7219 12.1657 11.0343L17.7657 16.6343C18.0782 16.9467 18.0782 17.4533 17.7657 17.7657C17.4533 18.0781 16.9468 18.0781 16.6344 17.7657L11.0344 12.1657C10.7219 11.8533 10.7219 11.3467 11.0344 11.0343Z" fill="white"/>
</g>
<defs>
<clipPath id="clip0_640_4133">
<rect width="16" height="16" fill="white" transform="translate(2 18) rotate(-90)"/>
</clipPath>
</defs>
</svg>
