<svg width="24" height="24" viewBox="0 0 24 24" fill="none" xmlns="http://www.w3.org/2000/svg">
<path fill-rule="evenodd" clip-rule="evenodd" d="M4.23602 11.1844C4.55078 10.8867 5.06111 10.8867 5.3758 11.1844L8.03543 13.699C8.35006 13.9967 8.35006 14.4792 8.03543 14.7768C7.72056 15.0744 7.21022 15.0744 6.89559 14.7768L4.23602 12.2621C3.92133 11.9645 3.92133 11.482 4.23602 11.1844Z" fill="#575FCC"/>
<path fill-rule="evenodd" clip-rule="evenodd" d="M13.8535 8.22317C14.1684 8.52085 14.1684 9.00334 13.8535 9.30098L8.1546 14.6896C7.83973 14.9872 7.32957 14.9872 7.01476 14.6896C6.70007 14.392 6.70007 13.9095 7.01476 13.6119L12.7137 8.22317C13.0285 7.92561 13.5388 7.92561 13.8535 8.22317Z" fill="#575FCC"/>
<path fill-rule="evenodd" clip-rule="evenodd" d="M10.1464 11.1844C10.4612 10.8867 10.9715 10.8867 11.2862 11.1844L13.9458 13.699C14.2604 13.9967 14.2604 14.4792 13.9458 14.7768C13.6309 15.0744 13.1206 15.0744 12.8059 14.7768L10.1464 12.2621C9.83167 11.9645 9.83167 11.482 10.1464 11.1844Z" fill="#575FCC"/>
<path fill-rule="evenodd" clip-rule="evenodd" d="M19.7639 8.22317C20.0787 8.52085 20.0787 9.00334 19.7639 9.30098L14.0649 14.6896C13.7501 14.9872 13.2399 14.9872 12.9251 14.6896C12.6104 14.392 12.6104 13.9095 12.9251 13.6119L18.624 8.22317C18.9389 7.92561 19.4492 7.92561 19.7639 8.22317Z" fill="#575FCC"/>
</svg>
